<svg xmlns="http://www.w3.org/2000/svg" xmlns:xlink="http://www.w3.org/1999/xlink" width="500" zoomAndPan="magnify" viewBox="0 0 375 374.999991" height="500" preserveAspectRatio="xMidYMid meet" version="1.2"><defs><clipPath id="003bddc688"><path d="M 95.511719 95.511719 L 279.261719 95.511719 L 279.261719 279.261719 L 95.511719 279.261719 Z M 95.511719 95.511719 "/></clipPath><clipPath id="d250ce89da"><path d="M 138 114 L 236.957031 114 L 236.957031 260.964844 L 138 260.964844 Z M 138 114 "/></clipPath><clipPath id="cc81ee18d7"><path d="M 185.949219 114 L 236.949219 114 L 236.949219 260.964844 L 185.949219 260.964844 Z M 185.949219 114 "/></clipPath><clipPath id="1fb69f706f"><path d="M 185.949219 196 L 223 196 L 223 238 L 185.949219 238 Z M 185.949219 196 "/></clipPath><clipPath id="f51ab280c6"><path d="M 185.949219 117 L 234 117 L 234 258 L 185.949219 258 Z M 185.949219 117 "/></clipPath><clipPath id="0e6b52a4b3"><path d="M 185.949219 128 L 229 128 L 229 184 L 185.949219 184 Z M 185.949219 128 "/></clipPath><clipPath id="f75b87ee24"><path d="M 185.949219 205 L 221 205 L 221 230 L 185.949219 230 Z M 185.949219 205 "/></clipPath></defs><g id="74b020519c"><g clip-rule="nonzero" clip-path="url(#003bddc688)"><path style=" stroke:none;fill-rule:nonzero;fill:#ff5757;fill-opacity:1;" d="M 279.261719 187.386719 C 279.261719 188.890625 279.226562 190.394531 279.152344 191.894531 C 279.078125 193.398438 278.964844 194.894531 278.820312 196.390625 C 278.671875 197.886719 278.488281 199.378906 278.265625 200.867188 C 278.046875 202.355469 277.789062 203.835938 277.496094 205.3125 C 277.203125 206.785156 276.875 208.253906 276.507812 209.710938 C 276.144531 211.167969 275.742188 212.617188 275.304688 214.054688 C 274.867188 215.496094 274.398438 216.921875 273.890625 218.339844 C 273.382812 219.753906 272.84375 221.15625 272.269531 222.546875 C 271.691406 223.933594 271.082031 225.308594 270.441406 226.667969 C 269.796875 228.027344 269.121094 229.371094 268.414062 230.695312 C 267.703125 232.023438 266.964844 233.332031 266.191406 234.621094 C 265.417969 235.910156 264.613281 237.179688 263.777344 238.429688 C 262.941406 239.679688 262.078125 240.910156 261.179688 242.117188 C 260.285156 243.324219 259.359375 244.507812 258.40625 245.671875 C 257.453125 246.832031 256.472656 247.972656 255.460938 249.085938 C 254.453125 250.199219 253.414062 251.289062 252.351562 252.351562 C 251.289062 253.414062 250.199219 254.453125 249.085938 255.460938 C 247.972656 256.472656 246.832031 257.453125 245.671875 258.40625 C 244.507812 259.359375 243.324219 260.285156 242.117188 261.179688 C 240.910156 262.078125 239.679688 262.941406 238.429688 263.777344 C 237.179688 264.613281 235.910156 265.417969 234.621094 266.191406 C 233.332031 266.964844 232.023438 267.703125 230.695312 268.414062 C 229.371094 269.121094 228.027344 269.796875 226.667969 270.441406 C 225.308594 271.082031 223.933594 271.691406 222.546875 272.269531 C 221.15625 272.84375 219.753906 273.382812 218.339844 273.890625 C 216.921875 274.398438 215.496094 274.867188 214.054688 275.304688 C 212.617188 275.742188 211.167969 276.144531 209.710938 276.507812 C 208.253906 276.875 206.785156 277.203125 205.3125 277.496094 C 203.835938 277.789062 202.355469 278.046875 200.867188 278.265625 C 199.378906 278.488281 197.886719 278.671875 196.390625 278.820312 C 194.894531 278.964844 193.398438 279.078125 191.894531 279.152344 C 190.394531 279.226562 188.890625 279.261719 187.386719 279.261719 C 185.882812 279.261719 184.378906 279.226562 182.878906 279.152344 C 181.375 279.078125 179.878906 278.964844 178.382812 278.820312 C 176.886719 278.671875 175.394531 278.488281 173.90625 278.265625 C 172.417969 278.046875 170.9375 277.789062 169.460938 277.496094 C 167.988281 277.203125 166.519531 276.875 165.0625 276.507812 C 163.605469 276.144531 162.15625 275.742188 160.71875 275.304688 C 159.277344 274.867188 157.851562 274.398438 156.433594 273.890625 C 155.019531 273.382812 153.617188 272.84375 152.226562 272.269531 C 150.839844 271.691406 149.464844 271.082031 148.105469 270.441406 C 146.746094 269.796875 145.402344 269.121094 144.078125 268.414062 C 142.75 267.703125 141.441406 266.964844 140.152344 266.191406 C 138.863281 265.417969 137.59375 264.613281 136.34375 263.777344 C 135.09375 262.941406 133.863281 262.078125 132.65625 261.179688 C 131.449219 260.285156 130.265625 259.359375 129.101562 258.40625 C 127.941406 257.453125 126.800781 256.472656 125.6875 255.460938 C 124.574219 254.453125 123.484375 253.414062 122.421875 252.351562 C 121.359375 251.289062 120.320312 250.199219 119.3125 249.085938 C 118.300781 247.972656 117.320312 246.832031 116.367188 245.671875 C 115.414062 244.507812 114.488281 243.324219 113.59375 242.117188 C 112.695312 240.910156 111.832031 239.679688 110.996094 238.429688 C 110.160156 237.179688 109.355469 235.910156 108.582031 234.621094 C 107.808594 233.332031 107.070312 232.023438 106.359375 230.695312 C 105.652344 229.371094 104.976562 228.027344 104.332031 226.667969 C 103.691406 225.308594 103.082031 223.933594 102.503906 222.546875 C 101.929688 221.15625 101.390625 219.753906 100.882812 218.339844 C 100.375 216.921875 99.90625 215.496094 99.46875 214.054688 C 99.03125 212.617188 98.628906 211.167969 98.265625 209.710938 C 97.898438 208.253906 97.570312 206.785156 97.277344 205.3125 C 96.984375 203.835938 96.726562 202.355469 96.507812 200.867188 C 96.285156 199.378906 96.101562 197.886719 95.953125 196.390625 C 95.808594 194.894531 95.695312 193.398438 95.621094 191.894531 C 95.546875 190.394531 95.511719 188.890625 95.511719 187.386719 C 95.511719 185.882812 95.546875 184.378906 95.621094 182.878906 C 95.695312 181.375 95.808594 179.878906 95.953125 178.382812 C 96.101562 176.886719 96.285156 175.394531 96.507812 173.90625 C 96.726562 172.417969 96.984375 170.9375 97.277344 169.460938 C 97.570312 167.988281 97.898438 166.519531 98.265625 165.0625 C 98.628906 163.605469 99.03125 162.15625 99.46875 160.71875 C 99.90625 159.277344 100.375 157.851562 100.882812 156.433594 C 101.390625 155.019531 101.929688 153.617188 102.503906 152.226562 C 103.082031 150.839844 103.691406 149.464844 104.332031 148.105469 C 104.976562 146.746094 105.652344 145.402344 106.359375 144.078125 C 107.070312 142.75 107.808594 141.441406 108.582031 140.152344 C 109.355469 138.863281 110.160156 137.59375 110.996094 136.34375 C 111.832031 135.09375 112.695312 133.863281 113.59375 132.65625 C 114.488281 131.449219 115.414062 130.265625 116.367188 129.101562 C 117.320312 127.941406 118.300781 126.800781 119.3125 125.6875 C 120.320312 124.574219 121.359375 123.484375 122.421875 122.421875 C 123.484375 121.359375 124.574219 120.320312 125.6875 119.3125 C 126.800781 118.300781 127.941406 117.320312 129.101562 116.367188 C 130.265625 115.414062 131.449219 114.488281 132.65625 113.59375 C 133.863281 112.695312 135.09375 111.832031 136.34375 110.996094 C 137.59375 110.160156 138.863281 109.355469 140.152344 108.582031 C 141.441406 107.808594 142.75 107.070312 144.078125 106.359375 C 145.402344 105.652344 146.746094 104.976562 148.105469 104.332031 C 149.464844 103.691406 150.839844 103.082031 152.226562 102.503906 C 153.617188 101.929688 155.019531 101.390625 156.433594 100.882812 C 157.851562 100.375 159.277344 99.90625 160.71875 99.46875 C 162.15625 99.03125 163.605469 98.628906 165.0625 98.265625 C 166.519531 97.898438 167.988281 97.570312 169.460938 97.277344 C 170.9375 96.984375 172.417969 96.726562 173.90625 96.507812 C 175.394531 96.285156 176.886719 96.101562 178.382812 95.953125 C 179.878906 95.808594 181.375 95.695312 182.878906 95.621094 C 184.378906 95.546875 185.882812 95.511719 187.386719 95.511719 C 188.890625 95.511719 190.394531 95.546875 191.894531 95.621094 C 193.398438 95.695312 194.894531 95.808594 196.390625 95.953125 C 197.886719 96.101562 199.378906 96.285156 200.867188 96.507812 C 202.355469 96.726562 203.835938 96.984375 205.3125 97.277344 C 206.785156 97.570312 208.253906 97.898438 209.710938 98.265625 C 211.167969 98.628906 212.617188 99.03125 214.054688 99.46875 C 215.496094 99.90625 216.921875 100.375 218.339844 100.882812 C 219.753906 101.390625 221.15625 101.929688 222.546875 102.503906 C 223.933594 103.082031 225.308594 103.691406 226.667969 104.332031 C 228.027344 104.976562 229.371094 105.652344 230.695312 106.359375 C 232.023438 107.070312 233.332031 107.808594 234.621094 108.582031 C 235.910156 109.355469 237.179688 110.160156 238.429688 110.996094 C 239.679688 111.832031 240.910156 112.695312 242.117188 113.59375 C 243.324219 114.488281 244.507812 115.414062 245.671875 116.367188 C 246.832031 117.320312 247.972656 118.300781 249.085938 119.3125 C 250.199219 120.320312 251.289062 121.359375 252.351562 122.421875 C 253.414062 123.484375 254.453125 124.574219 255.460938 125.6875 C 256.472656 126.800781 257.453125 127.941406 258.40625 129.101562 C 259.359375 130.265625 260.285156 131.449219 261.179688 132.65625 C 262.078125 133.863281 262.941406 135.09375 263.777344 136.34375 C 264.613281 137.59375 265.417969 138.863281 266.191406 140.152344 C 266.964844 141.441406 267.703125 142.75 268.414062 144.078125 C 269.121094 145.402344 269.796875 146.746094 270.441406 148.105469 C 271.082031 149.464844 271.691406 150.839844 272.269531 152.226562 C 272.84375 153.617188 273.382812 155.019531 273.890625 156.433594 C 274.398438 157.851562 274.867188 159.277344 275.304688 160.71875 C 275.742188 162.15625 276.144531 163.605469 276.507812 165.0625 C 276.875 166.519531 277.203125 167.988281 277.496094 169.460938 C 277.789062 170.9375 278.046875 172.417969 278.265625 173.90625 C 278.488281 175.394531 278.671875 176.886719 278.820312 178.382812 C 278.964844 179.878906 279.078125 181.375 279.152344 182.878906 C 279.226562 184.378906 279.261719 185.882812 279.261719 187.386719 Z M 279.261719 187.386719 "/></g><g style="fill:#ff5757;fill-opacity:1;"><g transform="translate(147.01564, 309.694285)"><path style="stroke:none" d="M 3.328125 0 C 2.859375 0 2.460938 -0.160156 2.140625 -0.484375 C 1.816406 -0.804688 1.65625 -1.203125 1.65625 -1.671875 L 1.65625 -18.328125 C 1.65625 -18.804688 1.816406 -19.203125 2.140625 -19.515625 C 2.460938 -19.835938 2.859375 -20 3.328125 -20 L 14.53125 -20 C 15.507812 -20 16.378906 -19.773438 17.140625 -19.328125 C 17.910156 -18.890625 18.515625 -18.285156 18.953125 -17.515625 C 19.398438 -16.753906 19.625 -15.882812 19.625 -14.90625 L 19.625 -13.375 C 19.625 -12.875 19.460938 -12.460938 19.140625 -12.140625 C 18.816406 -11.816406 18.40625 -11.65625 17.90625 -11.65625 L 17.84375 -11.65625 C 17.394531 -11.65625 17.007812 -11.492188 16.6875 -11.171875 C 16.375 -10.859375 16.21875 -10.46875 16.21875 -10 C 16.21875 -9.53125 16.375 -9.132812 16.6875 -8.8125 C 17.007812 -8.5 17.394531 -8.34375 17.84375 -8.34375 L 17.90625 -8.34375 C 18.40625 -8.34375 18.816406 -8.179688 19.140625 -7.859375 C 19.460938 -7.535156 19.625 -7.125 19.625 -6.625 L 19.625 -5.09375 C 19.625 -4.113281 19.398438 -3.238281 18.953125 -2.46875 C 18.515625 -1.707031 17.910156 -1.101562 17.140625 -0.65625 C 16.378906 -0.21875 15.507812 0 14.53125 0 Z M 8.75 -12.203125 L 12.5 -12.203125 C 12.96875 -12.203125 13.359375 -12.359375 13.671875 -12.671875 C 13.992188 -12.992188 14.15625 -13.378906 14.15625 -13.828125 C 14.15625 -14.296875 13.992188 -14.6875 13.671875 -15 C 13.359375 -15.3125 12.96875 -15.46875 12.5 -15.46875 L 8.75 -15.46875 C 8.300781 -15.46875 7.914062 -15.3125 7.59375 -15 C 7.28125 -14.6875 7.125 -14.296875 7.125 -13.828125 C 7.125 -13.378906 7.28125 -12.992188 7.59375 -12.671875 C 7.914062 -12.359375 8.300781 -12.203125 8.75 -12.203125 Z M 8.75 -4.53125 L 12.5 -4.53125 C 12.96875 -4.53125 13.359375 -4.6875 13.671875 -5 C 13.992188 -5.3125 14.15625 -5.703125 14.15625 -6.171875 C 14.15625 -6.617188 13.992188 -7.003906 13.671875 -7.328125 C 13.359375 -7.660156 12.96875 -7.828125 12.5 -7.828125 L 8.75 -7.828125 C 8.300781 -7.828125 7.914062 -7.660156 7.59375 -7.328125 C 7.28125 -7.003906 7.125 -6.617188 7.125 -6.171875 C 7.125 -5.703125 7.28125 -5.3125 7.59375 -5 C 7.914062 -4.6875 8.300781 -4.53125 8.75 -4.53125 Z M 8.75 -4.53125 "/></g></g><g style="fill:#ff5757;fill-opacity:1;"><g transform="translate(168.287276, 309.694285)"><path style="stroke:none" d="M 3.328125 0 C 2.859375 0 2.460938 -0.160156 2.140625 -0.484375 C 1.816406 -0.804688 1.65625 -1.203125 1.65625 -1.671875 L 1.65625 -18.328125 C 1.65625 -18.804688 1.816406 -19.203125 2.140625 -19.515625 C 2.460938 -19.835938 2.859375 -20 3.328125 -20 L 13.453125 -20 C 13.929688 -20 14.328125 -19.832031 14.640625 -19.5 C 14.960938 -19.164062 15.125 -18.765625 15.125 -18.296875 L 15.125 -6.171875 C 15.125 -5.703125 15.28125 -5.3125 15.59375 -5 C 15.914062 -4.6875 16.300781 -4.53125 16.75 -4.53125 C 17.21875 -4.53125 17.609375 -4.6875 17.921875 -5 C 18.242188 -5.3125 18.40625 -5.703125 18.40625 -6.171875 L 18.40625 -18.328125 C 18.40625 -18.804688 18.566406 -19.203125 18.890625 -19.515625 C 19.210938 -19.835938 19.609375 -20 20.078125 -20 L 22.203125 -20 C 22.679688 -20 23.078125 -19.835938 23.390625 -19.515625 C 23.710938 -19.203125 23.875 -18.804688 23.875 -18.328125 L 23.875 -1.671875 C 23.875 -1.203125 23.710938 -0.804688 23.390625 -0.484375 C 23.078125 -0.160156 22.679688 0 22.203125 0 L 12.078125 0 C 11.609375 0 11.210938 -0.164062 10.890625 -0.5 C 10.566406 -0.832031 10.40625 -1.234375 10.40625 -1.703125 L 10.40625 -13.84375 C 10.40625 -14.300781 10.242188 -14.6875 9.921875 -15 C 9.609375 -15.3125 9.21875 -15.46875 8.75 -15.46875 C 8.300781 -15.46875 7.914062 -15.3125 7.59375 -15 C 7.28125 -14.6875 7.125 -14.300781 7.125 -13.84375 L 7.125 -1.671875 C 7.125 -1.203125 6.960938 -0.804688 6.640625 -0.484375 C 6.328125 -0.160156 5.929688 0 5.453125 0 Z M 3.328125 0 "/></g></g><g style="fill:#ff5757;fill-opacity:1;"><g transform="translate(193.808229, 309.694285)"><path style="stroke:none" d="M 3.328125 0 C 2.859375 0 2.460938 -0.160156 2.140625 -0.484375 C 1.816406 -0.804688 1.65625 -1.203125 1.65625 -1.671875 L 1.65625 -18.328125 C 1.65625 -18.804688 1.816406 -19.203125 2.140625 -19.515625 C 2.460938 -19.835938 2.859375 -20 3.328125 -20 L 13.453125 -20 C 13.929688 -20 14.328125 -19.832031 14.640625 -19.5 C 14.960938 -19.164062 15.125 -18.765625 15.125 -18.296875 L 15.125 -6.171875 C 15.125 -5.703125 15.28125 -5.3125 15.59375 -5 C 15.914062 -4.6875 16.300781 -4.53125 16.75 -4.53125 C 17.21875 -4.53125 17.609375 -4.6875 17.921875 -5 C 18.242188 -5.3125 18.40625 -5.703125 18.40625 -6.171875 L 18.40625 -18.328125 C 18.40625 -18.804688 18.566406 -19.203125 18.890625 -19.515625 C 19.210938 -19.835938 19.609375 -20 20.078125 -20 L 22.203125 -20 C 22.679688 -20 23.078125 -19.835938 23.390625 -19.515625 C 23.710938 -19.203125 23.875 -18.804688 23.875 -18.328125 L 23.875 -1.671875 C 23.875 -1.203125 23.710938 -0.804688 23.390625 -0.484375 C 23.078125 -0.160156 22.679688 0 22.203125 0 L 12.078125 0 C 11.609375 0 11.210938 -0.164062 10.890625 -0.5 C 10.566406 -0.832031 10.40625 -1.234375 10.40625 -1.703125 L 10.40625 -13.84375 C 10.40625 -14.300781 10.242188 -14.6875 9.921875 -15 C 9.609375 -15.3125 9.21875 -15.46875 8.75 -15.46875 C 8.300781 -15.46875 7.914062 -15.3125 7.59375 -15 C 7.28125 -14.6875 7.125 -14.300781 7.125 -13.84375 L 7.125 -1.671875 C 7.125 -1.203125 6.960938 -0.804688 6.640625 -0.484375 C 6.328125 -0.160156 5.929688 0 5.453125 0 Z M 3.328125 0 "/></g></g><g style="fill:#ff5757;fill-opacity:1;"><g transform="translate(219.329181, 309.694285)"><path style="stroke:none" d="M 7.71875 0 C 7.257812 0 6.863281 -0.160156 6.53125 -0.484375 C 6.207031 -0.804688 6.046875 -1.203125 6.046875 -1.671875 L 6.046875 -7.375 C 6.046875 -7.820312 5.882812 -8.207031 5.5625 -8.53125 C 5.25 -8.863281 4.863281 -9.03125 4.40625 -9.03125 L 3.328125 -9.03125 C 2.859375 -9.03125 2.460938 -9.191406 2.140625 -9.515625 C 1.816406 -9.835938 1.65625 -10.238281 1.65625 -10.71875 L 1.65625 -18.375 C 1.65625 -18.84375 1.816406 -19.226562 2.140625 -19.53125 C 2.460938 -19.84375 2.859375 -20 3.328125 -20 L 5.453125 -20 C 5.921875 -20 6.316406 -19.835938 6.640625 -19.515625 C 6.960938 -19.191406 7.125 -18.785156 7.125 -18.296875 L 7.125 -13.875 C 7.125 -13.40625 7.285156 -13.007812 7.609375 -12.6875 C 7.929688 -12.363281 8.320312 -12.203125 8.78125 -12.203125 C 9.238281 -12.203125 9.628906 -12.363281 9.953125 -12.6875 C 10.285156 -13.007812 10.453125 -13.40625 10.453125 -13.875 L 10.453125 -18.296875 C 10.453125 -18.785156 10.613281 -19.191406 10.9375 -19.515625 C 11.257812 -19.835938 11.65625 -20 12.125 -20 L 14.25 -20 C 14.695312 -20 15.085938 -19.84375 15.421875 -19.53125 C 15.753906 -19.226562 15.921875 -18.84375 15.921875 -18.375 L 15.921875 -10.71875 C 15.921875 -10.238281 15.757812 -9.835938 15.4375 -9.515625 C 15.125 -9.191406 14.726562 -9.03125 14.25 -9.03125 L 13.15625 -9.03125 C 12.695312 -9.03125 12.3125 -8.867188 12 -8.546875 C 11.6875 -8.234375 11.53125 -7.84375 11.53125 -7.375 L 11.53125 -1.671875 C 11.53125 -1.203125 11.367188 -0.804688 11.046875 -0.484375 C 10.734375 -0.160156 10.332031 0 9.84375 0 Z M 7.71875 0 "/></g></g><g clip-rule="nonzero" clip-path="url(#d250ce89da)"><path style=" stroke:none;fill-rule:nonzero;fill:#ff5757;fill-opacity:1;" d="M 226.941406 193.914062 C 232.644531 200.765625 236.042969 209.308594 236.066406 218.265625 C 236.058594 220.453125 235.855469 222.636719 235.472656 224.792969 C 233.925781 233.460938 229.089844 241.324219 222.566406 247.15625 C 215.503906 253.464844 206.574219 257.554688 197.261719 259.167969 C 187.367188 260.882812 176.96875 260.015625 167.589844 256.367188 C 159.003906 253.023438 151.304688 247.46875 145.9375 239.929688 C 140.8125 232.75 138.214844 223.851562 139.027344 215.054688 C 139.84375 206.207031 143.902344 198 150.046875 191.632812 C 151.074219 190.5625 152.167969 189.558594 153.292969 188.59375 C 153.171875 188.335938 153.046875 188.074219 152.933594 187.804688 C 151.183594 183.949219 149.53125 180.050781 147.984375 176.113281 C 146.007812 171.085938 144.207031 165.984375 142.667969 160.804688 C 141.058594 155.414062 139.722656 149.914062 138.953125 144.335938 C 138.253906 139.222656 137.957031 133.996094 138.890625 128.890625 C 139.65625 124.691406 141.449219 120.503906 144.75 117.675781 C 147.5 115.316406 150.929688 113.984375 154.554688 114.730469 C 158.164062 115.46875 161.1875 118.09375 163.46875 120.867188 C 166.824219 124.933594 169.191406 129.714844 171.136719 134.582031 C 173.648438 140.855469 175.398438 147.433594 176.699219 154.0625 C 178.199219 161.652344 179.101562 169.355469 179.566406 177.078125 C 184.796875 176.339844 190.136719 176.339844 195.375 177.078125 C 195.46875 175.492188 195.578125 173.914062 195.714844 172.332031 C 196.386719 164.40625 197.546875 156.507812 199.390625 148.773438 C 200.886719 142.515625 202.835938 136.335938 205.570312 130.496094 C 207.558594 126.25 210.027344 122 213.449219 118.730469 C 215.960938 116.328125 219.214844 114.382812 222.804688 114.507812 C 226.53125 114.628906 229.921875 116.878906 232.171875 119.75 C 235.015625 123.390625 236.167969 127.941406 236.527344 132.472656 C 236.957031 137.746094 236.328125 143.085938 235.363281 148.265625 C 234.328125 153.859375 232.808594 159.355469 231.050781 164.769531 C 229.445312 169.703125 227.628906 174.574219 225.660156 179.378906 C 224.386719 182.472656 223.058594 185.550781 221.660156 188.585938 C 223.554688 190.207031 225.335938 191.980469 226.941406 193.914062 Z M 226.941406 193.914062 "/></g><path style=" stroke:none;fill-rule:nonzero;fill:#ff5757;fill-opacity:1;" d="M 180.738281 213.796875 C 180.855469 214.875 180.910156 215.953125 180.917969 217.03125 C 180.90625 221.058594 180.058594 225.175781 178.234375 228.691406 C 177.367188 230.363281 176.453125 231.703125 175.238281 232.992188 C 174.949219 233.300781 174.644531 233.597656 174.328125 233.886719 C 174.175781 234.03125 174.015625 234.167969 173.855469 234.300781 C 173.769531 234.371094 173.675781 234.445312 173.589844 234.515625 C 173.554688 234.546875 173.539062 234.5625 173.523438 234.566406 C 173.515625 234.574219 173.511719 234.574219 173.496094 234.589844 C 172.828125 235.089844 172.121094 235.539062 171.375 235.914062 C 171.195312 236 171.019531 236.085938 170.832031 236.175781 C 170.820312 236.179688 170.769531 236.203125 170.71875 236.226562 C 170.652344 236.246094 170.484375 236.320312 170.5 236.3125 C 170.132812 236.457031 169.753906 236.578125 169.378906 236.679688 C 168.996094 236.789062 168.613281 236.867188 168.222656 236.941406 C 168.164062 236.949219 168.113281 236.957031 168.054688 236.96875 C 168.011719 236.976562 167.917969 236.992188 167.882812 236.992188 C 167.636719 237.011719 167.394531 237.035156 167.148438 237.050781 C 166.773438 237.0625 166.390625 237.0625 166.015625 237.050781 C 165.820312 237.042969 165.617188 237.027344 165.421875 237.007812 C 165.371094 237 165.320312 236.992188 165.261719 236.992188 C 165.238281 236.984375 165.03125 236.957031 165.007812 236.957031 C 164.226562 236.824219 163.46875 236.609375 162.730469 236.324219 C 162.742188 236.332031 162.605469 236.273438 162.535156 236.246094 C 162.460938 236.210938 162.324219 236.152344 162.339844 236.160156 C 162.179688 236.085938 162.019531 236.007812 161.859375 235.929688 C 161.464844 235.726562 161.074219 235.5 160.695312 235.261719 C 159.90625 234.757812 159.582031 234.511719 158.910156 233.894531 C 157.511719 232.628906 156.578125 231.429688 155.644531 229.851562 C 153.648438 226.5 152.578125 222.570312 152.367188 218.664062 C 152.253906 216.515625 152.363281 214.300781 152.722656 212.269531 C 153.0625 210.375 153.671875 208.273438 154.386719 206.648438 C 154.777344 205.765625 155.21875 204.902344 155.726562 204.078125 C 156.175781 203.332031 156.710938 202.574219 157.144531 202.039062 C 158.273438 200.65625 159.453125 199.570312 160.8125 198.722656 C 161.136719 198.523438 161.464844 198.332031 161.804688 198.160156 C 161.984375 198.066406 162.15625 197.980469 162.339844 197.898438 C 162.390625 197.878906 162.441406 197.855469 162.496094 197.828125 C 162.519531 197.820312 162.691406 197.746094 162.738281 197.734375 C 163.496094 197.445312 164.277344 197.242188 165.082031 197.097656 C 165.117188 197.089844 165.210938 197.074219 165.253906 197.066406 C 165.3125 197.058594 165.371094 197.054688 165.421875 197.046875 C 165.59375 197.023438 165.777344 197.015625 165.949219 197.003906 C 166.390625 196.972656 166.839844 196.972656 167.289062 197.003906 C 167.460938 197.007812 167.640625 197.023438 167.816406 197.046875 C 167.808594 197.046875 167.976562 197.066406 168.046875 197.074219 C 168.089844 197.082031 168.140625 197.089844 168.15625 197.089844 C 168.570312 197.160156 168.972656 197.25 169.378906 197.355469 C 169.761719 197.464844 170.132812 197.589844 170.5 197.726562 C 170.566406 197.753906 170.628906 197.777344 170.695312 197.804688 C 170.722656 197.820312 170.753906 197.828125 170.769531 197.835938 C 170.992188 197.9375 171.210938 198.035156 171.425781 198.152344 C 172.15625 198.527344 172.851562 198.96875 173.503906 199.46875 C 173.554688 199.511719 173.742188 199.664062 173.792969 199.699219 C 173.972656 199.851562 174.148438 200.003906 174.320312 200.15625 C 174.640625 200.445312 174.933594 200.742188 175.230469 201.054688 C 175.890625 201.757812 176.316406 202.292969 176.808594 202.984375 C 179.023438 206.199219 180.3125 209.984375 180.738281 213.796875 Z M 222.441406 213.796875 C 222.023438 209.984375 220.726562 206.199219 218.511719 203 C 218.027344 202.296875 217.601562 201.761719 216.9375 201.070312 C 216.648438 200.757812 216.34375 200.460938 216.023438 200.171875 C 215.851562 200.011719 215.675781 199.859375 215.496094 199.714844 C 215.453125 199.679688 215.257812 199.527344 215.207031 199.484375 C 214.554688 198.984375 213.855469 198.542969 213.128906 198.167969 C 212.914062 198.058594 212.695312 197.949219 212.472656 197.847656 C 212.457031 197.839844 212.429688 197.828125 212.398438 197.820312 C 212.335938 197.792969 212.269531 197.769531 212.203125 197.742188 C 211.835938 197.59375 211.457031 197.472656 211.082031 197.371094 C 210.675781 197.261719 210.273438 197.175781 209.859375 197.105469 C 209.84375 197.105469 209.792969 197.097656 209.75 197.089844 C 209.679688 197.082031 209.511719 197.058594 209.519531 197.058594 C 209.347656 197.039062 209.164062 197.03125 208.992188 197.015625 C 208.550781 196.988281 208.101562 196.988281 207.652344 197.015625 C 207.480469 197.023438 207.296875 197.039062 207.125 197.058594 C 207.066406 197.066406 207.007812 197.074219 206.957031 197.082031 C 206.914062 197.089844 206.820312 197.105469 206.785156 197.109375 C 205.980469 197.253906 205.199219 197.457031 204.441406 197.746094 C 204.40625 197.761719 204.230469 197.835938 204.203125 197.839844 C 204.152344 197.863281 204.101562 197.886719 204.042969 197.914062 C 203.863281 197.992188 203.679688 198.085938 203.507812 198.175781 C 203.167969 198.347656 202.839844 198.535156 202.515625 198.738281 C 201.15625 199.585938 199.976562 200.671875 198.847656 202.050781 C 198.414062 202.582031 197.886719 203.347656 197.429688 204.09375 C 196.929688 204.917969 196.488281 205.777344 196.089844 206.660156 C 195.375 208.28125 194.765625 210.378906 194.425781 212.285156 C 194.058594 214.316406 193.949219 216.53125 194.074219 218.679688 C 194.289062 222.585938 195.359375 226.515625 197.351562 229.863281 C 198.289062 231.433594 199.222656 232.636719 200.613281 233.910156 C 201.285156 234.523438 201.605469 234.777344 202.402344 235.277344 C 202.777344 235.515625 203.167969 235.738281 203.566406 235.941406 C 203.722656 236.023438 203.882812 236.101562 204.042969 236.175781 C 204.027344 236.167969 204.164062 236.226562 204.238281 236.261719 C 204.308594 236.289062 204.449219 236.339844 204.433594 236.339844 C 205.171875 236.621094 205.929688 236.832031 206.710938 236.96875 C 206.734375 236.96875 206.945312 237.007812 206.964844 237.007812 C 207.015625 237.011719 207.066406 237.019531 207.125 237.019531 C 207.320312 237.042969 207.523438 237.058594 207.71875 237.0625 C 208.09375 237.085938 208.476562 237.085938 208.855469 237.0625 C 209.101562 237.050781 209.339844 237.027344 209.585938 237.007812 C 209.621094 237.007812 209.714844 236.992188 209.757812 236.984375 C 209.816406 236.976562 209.867188 236.96875 209.925781 236.957031 C 210.316406 236.890625 210.699219 236.804688 211.082031 236.695312 C 211.464844 236.585938 211.835938 236.464844 212.203125 236.324219 C 212.191406 236.332031 212.355469 236.261719 212.421875 236.238281 C 212.464844 236.21875 212.523438 236.195312 212.535156 236.1875 C 212.71875 236.109375 212.898438 236.023438 213.078125 235.929688 C 213.824219 235.550781 214.535156 235.101562 215.199219 234.605469 C 215.214844 234.597656 215.222656 234.589844 215.230469 234.582031 C 215.242188 234.574219 215.257812 234.5625 215.292969 234.53125 C 215.378906 234.460938 215.472656 234.386719 215.5625 234.316406 C 215.71875 234.175781 215.878906 234.039062 216.03125 233.902344 C 216.351562 233.613281 216.648438 233.316406 216.941406 233.003906 C 218.160156 231.71875 219.070312 230.371094 219.9375 228.707031 C 221.761719 225.191406 222.609375 221.074219 222.621094 217.042969 C 222.621094 215.953125 222.566406 214.875 222.441406 213.796875 Z M 222.441406 213.796875 "/><path style=" stroke:none;fill-rule:nonzero;fill:#ffffff;fill-opacity:1;" d="M 233.003906 214.332031 C 232.992188 214.238281 232.984375 214.144531 232.96875 214.042969 C 232.96875 214.035156 232.949219 213.875 232.941406 213.796875 C 232.875 213.332031 232.804688 212.875 232.722656 212.421875 C 232.347656 210.359375 231.789062 208.332031 231.058594 206.371094 C 230.394531 204.578125 229.511719 202.746094 228.449219 200.925781 C 227.414062 199.160156 226.210938 197.449219 225.03125 196.027344 C 223.664062 194.367188 222.160156 192.8125 220.5625 191.378906 C 220.03125 190.910156 219.527344 190.476562 219.019531 190.0625 C 218.984375 190.042969 218.949219 190.019531 218.910156 189.992188 C 217.738281 189.042969 216.515625 188.167969 215.25 187.34375 C 215.054688 187.21875 214.859375 187.097656 214.671875 186.972656 C 214.289062 186.734375 213.898438 186.496094 213.507812 186.265625 C 213.433594 186.222656 213.355469 186.179688 213.28125 186.136719 C 209.585938 183.992188 205.632812 182.359375 201.503906 181.222656 C 199.796875 180.757812 198.074219 180.375 196.328125 180.078125 C 191.742188 179.304688 186.800781 179.152344 182.039062 179.617188 C 180.925781 179.726562 179.796875 179.875 178.660156 180.066406 C 178.65625 180.066406 178.640625 180.070312 178.632812 180.070312 C 176.890625 180.367188 175.167969 180.753906 173.460938 181.214844 C 169.328125 182.351562 165.378906 183.984375 161.671875 186.136719 C 161.621094 186.164062 161.570312 186.191406 161.519531 186.222656 C 161.109375 186.460938 160.703125 186.714844 160.296875 186.96875 C 160.152344 187.0625 160.007812 187.148438 159.863281 187.242188 C 159.65625 187.378906 159.453125 187.515625 159.242188 187.65625 C 159.105469 187.742188 158.972656 187.835938 158.835938 187.929688 C 157.882812 188.582031 156.957031 189.269531 156.050781 190 C 156.023438 190.019531 155.984375 190.042969 155.949219 190.0625 C 155.886719 190.113281 155.820312 190.164062 155.753906 190.222656 C 155.371094 190.542969 154.996094 190.859375 154.617188 191.183594 C 153.808594 191.902344 153.019531 192.648438 152.265625 193.421875 C 150.777344 194.941406 149.472656 196.496094 148.347656 198.085938 C 147.144531 199.78125 146.074219 201.566406 145.164062 203.433594 C 144.28125 205.234375 143.597656 206.996094 143.011719 209.070312 C 142.730469 210.054688 142.492188 211.054688 142.304688 212.058594 C 142.203125 212.601562 142.109375 213.144531 142.03125 213.695312 C 142.023438 213.722656 142.023438 213.746094 142.023438 213.765625 C 142.023438 213.78125 142.023438 213.789062 142.015625 213.816406 C 142 213.941406 141.984375 214.054688 141.972656 214.179688 C 141.941406 214.417969 141.921875 214.65625 141.890625 214.902344 C 141.6875 217.035156 141.675781 219.191406 141.863281 221.328125 C 141.890625 221.617188 141.921875 221.90625 141.949219 222.195312 C 141.964844 222.339844 141.984375 222.484375 142 222.628906 C 142 222.652344 142.007812 222.664062 142.007812 222.6875 C 142.082031 223.207031 142.167969 223.730469 142.261719 224.242188 C 142.449219 225.277344 142.6875 226.296875 142.96875 227.3125 C 143.246094 228.292969 143.5625 229.265625 143.925781 230.21875 C 144.027344 230.488281 144.128906 230.753906 144.234375 231.015625 C 144.28125 231.125 144.324219 231.230469 144.375 231.347656 C 144.386719 231.382812 144.402344 231.414062 144.410156 231.433594 C 144.417969 231.457031 144.429688 231.492188 144.453125 231.535156 C 144.640625 231.96875 144.835938 232.40625 145.046875 232.832031 C 145.949219 234.726562 147.023438 236.542969 148.230469 238.257812 C 148.894531 239.207031 149.324219 239.761719 150.03125 240.609375 C 150.699219 241.414062 151.398438 242.195312 152.128906 242.945312 C 158.285156 249.3125 166.304688 253.589844 174.933594 255.6875 C 184.226562 257.945312 194.152344 257.648438 203.320312 254.78125 C 211.609375 252.191406 219.222656 247.453125 224.859375 240.726562 C 226.101562 239.234375 227.304688 237.554688 228.382812 235.726562 C 228.902344 234.84375 229.386719 233.945312 229.835938 233.019531 C 230.074219 232.527344 230.300781 232.027344 230.515625 231.527344 C 230.53125 231.484375 230.546875 231.464844 230.554688 231.441406 C 230.558594 231.433594 230.558594 231.429688 230.566406 231.414062 C 230.609375 231.304688 230.660156 231.195312 230.703125 231.082031 C 230.792969 230.863281 230.878906 230.640625 230.964844 230.414062 C 232.511719 226.363281 233.230469 222.464844 233.238281 218.257812 C 233.238281 217.210938 233.195312 216.160156 233.09375 215.121094 C 233.054688 214.859375 233.035156 214.589844 233.003906 214.332031 Z M 183.558594 220.445312 C 182.640625 228.289062 178.351562 237.164062 170.132812 239.4375 C 166.535156 240.429688 162.664062 239.800781 159.496094 237.859375 C 156.09375 235.785156 153.539062 232.460938 151.941406 228.851562 C 148.300781 220.640625 148.59375 210.324219 153.316406 202.589844 C 155.347656 199.261719 158.25 196.460938 161.917969 195.027344 C 165.421875 193.660156 169.34375 193.972656 172.683594 195.628906 C 176.164062 197.351562 178.871094 200.46875 180.644531 203.867188 C 182.757812 207.914062 183.742188 212.484375 183.753906 217.035156 C 183.753906 218.171875 183.691406 219.308594 183.558594 220.445312 Z M 225.269531 220.445312 C 224.351562 228.289062 220.0625 237.164062 211.84375 239.4375 C 208.246094 240.429688 204.375 239.800781 201.207031 237.859375 C 197.804688 235.785156 195.253906 232.460938 193.652344 228.851562 C 190.011719 220.640625 190.304688 210.324219 195.027344 202.589844 C 197.0625 199.261719 199.960938 196.460938 203.628906 195.027344 C 207.132812 193.660156 211.054688 193.972656 214.398438 195.628906 C 217.875 197.351562 220.582031 200.46875 222.355469 203.867188 C 224.46875 207.914062 225.453125 212.484375 225.464844 217.035156 C 225.460938 218.171875 225.402344 219.308594 225.269531 220.445312 Z M 142.007812 222.703125 C 142.015625 222.761719 142.03125 222.867188 142.007812 222.703125 Z M 223.535156 117.398438 C 223.46875 117.394531 223.367188 117.378906 223.367188 117.378906 C 223.382812 117.363281 223.460938 117.386719 223.535156 117.398438 Z M 233.792969 137.023438 C 233.765625 138.289062 233.6875 139.554688 233.570312 140.820312 C 233.511719 141.457031 233.441406 142.101562 233.367188 142.738281 C 233.34375 142.890625 233.332031 143.042969 233.308594 143.1875 C 233.300781 143.222656 233.273438 143.453125 233.265625 143.527344 C 233.222656 143.851562 233.179688 144.171875 233.128906 144.496094 C 232.316406 149.945312 230.980469 155.304688 229.386719 160.582031 C 227.859375 165.636719 226.097656 170.617188 224.164062 175.527344 C 223.738281 176.613281 223.304688 177.699219 222.855469 178.777344 C 222.652344 179.277344 222.441406 179.773438 222.230469 180.273438 C 222.1875 180.367188 222.152344 180.46875 222.109375 180.5625 C 222.09375 180.605469 222.058594 180.6875 222.03125 180.753906 C 221.921875 181.003906 221.820312 181.25 221.710938 181.496094 C 221.007812 183.140625 220.285156 184.773438 219.546875 186.402344 C 219.488281 186.527344 219.441406 186.640625 219.382812 186.765625 C 219.375 186.773438 219.375 186.777344 219.367188 186.785156 C 218.738281 186.308594 218.09375 185.84375 217.441406 185.398438 C 220.515625 178.453125 223.347656 171.390625 225.753906 164.183594 C 227.167969 159.949219 228.441406 155.660156 229.425781 151.304688 C 230.320312 147.347656 231.007812 143.289062 231.117188 139.222656 C 231.210938 135.640625 230.855469 131.777344 229.019531 128.621094 C 227.753906 126.488281 225.753906 124.875 223.160156 125.324219 C 220.589844 125.765625 218.613281 128.078125 217.125 130.039062 C 214.730469 133.210938 212.964844 136.855469 211.402344 140.496094 C 209.171875 145.675781 207.363281 151.023438 205.800781 156.433594 C 203.875 163.105469 202.3125 169.882812 201.019531 176.699219 C 200.933594 177.164062 200.84375 177.625 200.765625 178.089844 C 200.765625 178.089844 200.765625 178.097656 200.765625 178.097656 C 199.910156 177.894531 199.058594 177.707031 198.195312 177.539062 C 198.195312 177.53125 198.195312 177.53125 198.195312 177.523438 C 198.636719 169.929688 199.5 162.351562 200.96875 154.886719 C 202.25 148.375 203.957031 141.90625 206.394531 135.71875 C 206.515625 135.410156 206.640625 135.097656 206.761719 134.792969 C 206.835938 134.621094 206.90625 134.445312 206.980469 134.273438 C 206.980469 134.273438 207.003906 134.222656 207.015625 134.1875 C 207.046875 134.128906 207.101562 133.984375 207.109375 133.96875 C 207.378906 133.339844 207.652344 132.71875 207.941406 132.101562 C 208.492188 130.914062 209.078125 129.742188 209.707031 128.601562 C 210.285156 127.542969 210.902344 126.515625 211.558594 125.511719 C 211.871094 125.035156 212.195312 124.5625 212.53125 124.105469 C 212.675781 123.90625 212.828125 123.710938 212.972656 123.507812 C 212.992188 123.476562 213 123.464844 213.015625 123.449219 C 213.023438 123.441406 213.027344 123.433594 213.035156 123.417969 C 213.128906 123.296875 213.230469 123.175781 213.324219 123.058594 C 213.949219 122.292969 214.613281 121.554688 215.324219 120.859375 C 215.648438 120.546875 215.980469 120.238281 216.320312 119.945312 C 216.480469 119.808594 216.652344 119.6875 216.804688 119.550781 C 216.8125 119.542969 216.828125 119.535156 216.835938 119.527344 C 216.9375 119.453125 217.039062 119.375 217.136719 119.304688 C 217.796875 118.832031 218.492188 118.414062 219.222656 118.074219 C 219.292969 118.035156 219.367188 118.007812 219.441406 117.972656 C 219.628906 117.90625 219.800781 117.835938 219.988281 117.769531 C 220.34375 117.652344 220.707031 117.550781 221.066406 117.472656 C 221.226562 117.4375 221.386719 117.414062 221.542969 117.386719 C 221.632812 117.378906 221.71875 117.363281 221.804688 117.355469 C 222.167969 117.328125 222.527344 117.320312 222.890625 117.335938 C 223.058594 117.34375 223.214844 117.355469 223.382812 117.371094 C 223.425781 117.378906 223.476562 117.386719 223.519531 117.386719 C 223.535156 117.386719 223.535156 117.386719 223.542969 117.386719 C 223.585938 117.394531 223.621094 117.40625 223.628906 117.40625 C 223.984375 117.472656 224.332031 117.558594 224.679688 117.660156 C 224.851562 117.71875 225.03125 117.777344 225.199219 117.839844 C 225.277344 117.871094 225.359375 117.90625 225.4375 117.933594 C 225.453125 117.941406 225.464844 117.949219 225.488281 117.957031 C 225.855469 118.132812 226.21875 118.3125 226.566406 118.523438 C 226.921875 118.730469 227.269531 118.964844 227.601562 119.207031 C 227.621094 119.222656 227.671875 119.265625 227.722656 119.304688 C 227.773438 119.347656 227.855469 119.402344 227.875 119.417969 C 228.070312 119.578125 228.265625 119.746094 228.460938 119.917969 C 228.824219 120.25 229.171875 120.597656 229.503906 120.96875 C 229.664062 121.148438 229.816406 121.328125 229.964844 121.507812 C 229.988281 121.539062 230.011719 121.558594 230.03125 121.589844 C 230.097656 121.683594 230.167969 121.769531 230.234375 121.863281 C 230.804688 122.660156 231.304688 123.519531 231.726562 124.410156 C 231.78125 124.527344 231.832031 124.648438 231.890625 124.773438 C 231.90625 124.800781 231.949219 124.902344 231.976562 124.976562 C 232.007812 125.039062 232.042969 125.140625 232.058594 125.171875 C 232.117188 125.308594 232.167969 125.453125 232.21875 125.589844 C 232.398438 126.066406 232.558594 126.550781 232.695312 127.042969 C 233 128.085938 233.230469 129.144531 233.402344 130.214844 C 233.425781 130.34375 233.445312 130.46875 233.460938 130.597656 C 233.46875 130.664062 233.484375 130.734375 233.492188 130.800781 C 233.527344 131.066406 233.554688 131.335938 233.585938 131.601562 C 233.648438 132.1875 233.691406 132.78125 233.730469 133.367188 C 233.808594 134.597656 233.824219 135.804688 233.792969 137.023438 Z M 141.738281 143.902344 C 141.726562 143.816406 141.71875 143.730469 141.703125 143.640625 C 141.703125 143.621094 141.6875 143.554688 141.683594 143.503906 C 141.675781 143.441406 141.644531 143.238281 141.640625 143.179688 C 141.617188 143.003906 141.59375 142.839844 141.574219 142.664062 C 141.492188 142.007812 141.429688 141.347656 141.363281 140.691406 C 141.140625 138.230469 141.058594 135.75 141.203125 133.273438 C 141.242188 132.703125 141.285156 132.132812 141.34375 131.566406 C 141.371094 131.3125 141.398438 131.066406 141.429688 130.8125 C 141.4375 130.761719 141.449219 130.667969 141.457031 130.613281 C 141.480469 130.445312 141.507812 130.285156 141.539062 130.121094 C 141.710938 129.070312 141.941406 128.027344 142.238281 127.007812 C 142.390625 126.503906 142.558594 126.003906 142.738281 125.511719 C 142.78125 125.402344 142.824219 125.292969 142.867188 125.183594 C 142.882812 125.148438 142.941406 125.019531 142.960938 124.953125 C 143.050781 124.75 143.144531 124.542969 143.238281 124.347656 C 143.65625 123.476562 144.148438 122.636719 144.714844 121.851562 C 144.765625 121.777344 144.824219 121.707031 144.871094 121.632812 C 144.894531 121.605469 144.9375 121.546875 144.980469 121.496094 C 145.140625 121.300781 145.308594 121.105469 145.472656 120.917969 C 145.792969 120.5625 146.132812 120.222656 146.488281 119.902344 C 146.667969 119.746094 146.847656 119.585938 147.035156 119.433594 C 147.058594 119.417969 147.125 119.367188 147.167969 119.324219 C 147.230469 119.273438 147.339844 119.195312 147.367188 119.171875 C 147.703125 118.925781 148.050781 118.703125 148.410156 118.492188 C 148.757812 118.289062 149.121094 118.117188 149.488281 117.933594 C 149.5625 117.90625 149.632812 117.878906 149.707031 117.847656 C 149.886719 117.777344 150.074219 117.71875 150.261719 117.660156 C 150.617188 117.550781 150.980469 117.472656 151.347656 117.398438 C 151.355469 117.398438 151.371094 117.394531 151.382812 117.394531 C 151.433594 117.386719 151.5 117.378906 151.53125 117.371094 C 151.71875 117.355469 151.90625 117.335938 152.085938 117.335938 C 152.433594 117.320312 152.789062 117.328125 153.136719 117.363281 C 153.214844 117.371094 153.289062 117.378906 153.367188 117.386719 C 153.546875 117.421875 153.730469 117.449219 153.910156 117.488281 C 154.265625 117.566406 154.613281 117.660156 154.953125 117.785156 C 155.125 117.839844 155.292969 117.914062 155.464844 117.972656 C 155.558594 118.015625 155.660156 118.058594 155.753906 118.101562 C 156.484375 118.449219 157.179688 118.875 157.839844 119.347656 C 157.917969 119.402344 157.996094 119.460938 158.078125 119.519531 C 158.085938 119.527344 158.097656 119.535156 158.105469 119.542969 C 158.273438 119.695312 158.460938 119.824219 158.632812 119.96875 C 158.988281 120.273438 159.335938 120.589844 159.667969 120.917969 C 160.363281 121.597656 161.015625 122.328125 161.628906 123.085938 C 161.714844 123.195312 161.804688 123.304688 161.890625 123.414062 C 161.90625 123.425781 161.910156 123.433594 161.917969 123.441406 C 161.925781 123.457031 161.941406 123.46875 161.957031 123.492188 C 162.128906 123.714844 162.296875 123.949219 162.460938 124.179688 C 162.792969 124.644531 163.121094 125.113281 163.429688 125.589844 C 164.796875 127.675781 165.972656 129.886719 167.011719 132.144531 C 167.308594 132.789062 167.589844 133.433594 167.875 134.078125 C 167.875 134.078125 167.894531 134.121094 167.910156 134.15625 C 167.933594 134.207031 167.96875 134.300781 167.976562 134.316406 C 168.039062 134.46875 168.097656 134.621094 168.164062 134.773438 C 168.308594 135.125 168.453125 135.480469 168.589844 135.835938 C 169.148438 137.253906 169.660156 138.679688 170.136719 140.125 C 171.195312 143.289062 172.085938 146.507812 172.851562 149.75 C 174.617188 157.195312 175.730469 164.777344 176.375 172.394531 C 176.519531 174.101562 176.636719 175.804688 176.730469 177.511719 C 176.730469 177.511719 176.730469 177.511719 176.730469 177.519531 C 175.867188 177.683594 175.015625 177.871094 174.160156 178.074219 C 174.160156 178.074219 174.160156 178.066406 174.160156 178.066406 C 172.960938 171.554688 171.527344 165.082031 169.769531 158.699219 C 168.25 153.164062 166.492188 147.679688 164.320312 142.367188 C 162.714844 138.433594 160.929688 134.496094 158.496094 130.988281 C 156.964844 128.773438 155.046875 126.355469 152.390625 125.460938 C 149.972656 124.644531 147.796875 125.917969 146.390625 127.855469 C 146.21875 128.09375 146.058594 128.347656 145.90625 128.601562 C 144.285156 131.378906 143.839844 134.707031 143.792969 137.867188 C 143.746094 141.863281 144.359375 145.871094 145.167969 149.777344 C 146.972656 158.417969 149.902344 166.816406 153.136719 175.015625 C 154.511719 178.496094 155.964844 181.953125 157.476562 185.375 C 156.824219 185.816406 156.1875 186.28125 155.558594 186.757812 C 155.558594 186.75 155.550781 186.742188 155.550781 186.734375 C 155.140625 185.839844 154.726562 184.941406 154.328125 184.035156 C 153.9375 183.152344 153.554688 182.265625 153.171875 181.375 C 153.070312 181.144531 152.96875 180.902344 152.875 180.671875 C 152.859375 180.644531 152.851562 180.613281 152.839844 180.585938 C 152.839844 180.585938 152.839844 180.585938 152.839844 180.578125 C 152.78125 180.433594 152.714844 180.289062 152.65625 180.144531 C 152.449219 179.644531 152.238281 179.136719 152.035156 178.640625 C 150.125 173.972656 148.347656 169.21875 146.769531 164.394531 C 145.046875 159.140625 143.550781 153.800781 142.492188 148.367188 C 142.230469 147.035156 142 145.695312 141.804688 144.359375 C 141.785156 144.207031 141.761719 144.054688 141.738281 143.902344 Z M 141.738281 143.902344 "/><path style=" stroke:none;fill-rule:nonzero;fill:#ff5757;fill-opacity:1;" d="M 223.050781 128.324219 C 223.042969 128.324219 223.035156 128.324219 223.027344 128.332031 C 223.058594 128.316406 223.085938 128.304688 223.109375 128.296875 C 223.296875 128.1875 223.160156 128.296875 223.050781 128.324219 Z M 222.023438 128.941406 C 221.964844 128.984375 221.9375 129.003906 221.921875 129.019531 C 221.949219 129 222.007812 128.953125 222.035156 128.933594 C 222.035156 128.933594 222.03125 128.933594 222.023438 128.941406 Z M 222.058594 128.902344 C 222.058594 128.910156 222.050781 128.917969 222.042969 128.925781 C 222.050781 128.925781 222.050781 128.917969 222.058594 128.917969 C 222.050781 128.917969 222.058594 128.910156 222.058594 128.902344 Z M 228.171875 135.707031 C 228.152344 135.488281 228.128906 135.265625 228.105469 135.046875 C 228.101562 134.996094 228.070312 134.765625 228.078125 134.835938 C 228.078125 134.816406 228.070312 134.800781 228.070312 134.777344 C 228.011719 134.417969 227.957031 134.054688 227.875 133.695312 C 227.730469 133 227.542969 132.3125 227.304688 131.640625 C 227.261719 131.507812 227.210938 131.386719 227.160156 131.253906 C 227.179688 131.304688 227.058594 131.015625 227.023438 130.9375 C 226.882812 130.632812 226.726562 130.34375 226.558594 130.054688 C 226.414062 129.808594 226.253906 129.570312 226.089844 129.339844 C 226.074219 129.316406 226.058594 129.300781 226.050781 129.289062 C 226.039062 129.273438 226.023438 129.257812 226.015625 129.25 C 225.929688 129.148438 225.851562 129.054688 225.753906 128.953125 C 225.605469 128.796875 225.4375 128.65625 225.277344 128.507812 C 225.257812 128.492188 225.234375 128.476562 225.21875 128.460938 C 225.132812 128.40625 225.054688 128.355469 224.96875 128.304688 C 224.902344 128.265625 224.828125 128.230469 224.757812 128.195312 C 224.734375 128.1875 224.714844 128.179688 224.691406 128.171875 C 224.597656 128.144531 224.503906 128.117188 224.410156 128.09375 C 224.257812 128.117188 224.027344 128.066406 223.882812 128.070312 C 223.867188 128.070312 223.859375 128.070312 223.847656 128.070312 C 223.757812 128.09375 223.679688 128.101562 223.59375 128.121094 C 223.449219 128.160156 223.210938 128.296875 223.042969 128.316406 C 223.035156 128.316406 223.019531 128.324219 223.011719 128.324219 C 222.992188 128.332031 222.96875 128.347656 222.949219 128.355469 C 222.847656 128.40625 222.746094 128.460938 222.652344 128.511719 C 222.441406 128.636719 222.246094 128.765625 222.050781 128.902344 C 222.03125 128.960938 221.863281 129.054688 221.921875 129 C 221.914062 129.003906 221.90625 129.011719 221.898438 129.011719 C 221.796875 129.097656 221.691406 129.1875 221.589844 129.273438 C 221.363281 129.46875 221.148438 129.679688 220.9375 129.886719 C 220.453125 130.378906 220.019531 130.902344 219.585938 131.4375 C 219.585938 131.4375 219.585938 131.4375 219.578125 131.445312 C 219.570312 131.449219 219.570312 131.449219 219.5625 131.464844 C 219.511719 131.539062 219.453125 131.609375 219.402344 131.683594 C 219.292969 131.828125 219.1875 131.980469 219.078125 132.132812 C 218.847656 132.457031 218.621094 132.789062 218.40625 133.121094 C 217.371094 134.707031 216.457031 136.371094 215.621094 138.0625 C 215.140625 139.027344 214.6875 140.003906 214.25 140.988281 C 214.128906 141.253906 214.011719 141.53125 213.898438 141.796875 C 213.832031 141.941406 213.765625 142.09375 213.710938 142.246094 C 213.6875 142.296875 213.679688 142.316406 213.671875 142.332031 C 213.664062 142.347656 213.660156 142.367188 213.636719 142.417969 C 213.40625 142.96875 213.179688 143.527344 212.957031 144.082031 C 210.878906 149.308594 209.1875 154.683594 207.71875 160.101562 C 206.039062 166.28125 204.65625 172.546875 203.5 178.84375 C 203.5 178.84375 203.5 178.847656 203.5 178.847656 C 205.539062 179.472656 207.542969 180.195312 209.5 181.046875 C 209.542969 181.070312 209.585938 181.085938 209.628906 181.105469 C 210.136719 181.332031 210.640625 181.5625 211.140625 181.800781 C 211.257812 181.859375 211.363281 181.910156 211.480469 181.96875 C 211.90625 182.175781 212.335938 182.394531 212.753906 182.613281 C 212.90625 182.691406 213.058594 182.769531 213.21875 182.851562 C 213.601562 183.058594 213.984375 183.269531 214.367188 183.488281 C 214.535156 183.582031 214.699219 183.675781 214.867188 183.777344 C 214.917969 183.804688 214.96875 183.839844 215.027344 183.871094 C 215.027344 183.871094 215.027344 183.871094 215.027344 183.863281 C 215.582031 182.597656 216.140625 181.332031 216.675781 180.050781 C 216.683594 180.035156 216.746094 179.882812 216.769531 179.832031 C 216.804688 179.746094 216.84375 179.652344 216.886719 179.566406 C 216.988281 179.328125 217.089844 179.089844 217.1875 178.847656 C 217.390625 178.355469 217.59375 177.863281 217.796875 177.375 C 218.214844 176.347656 218.636719 175.3125 219.042969 174.277344 C 222.226562 166.214844 225.105469 157.953125 226.921875 149.464844 C 227.136719 148.433594 227.339844 147.398438 227.519531 146.355469 C 227.609375 145.847656 227.6875 145.34375 227.765625 144.835938 C 227.804688 144.613281 227.832031 144.378906 227.867188 144.15625 C 227.875 144.121094 227.875 144.097656 227.882812 144.078125 C 227.882812 144.054688 227.890625 144.027344 227.890625 143.988281 C 227.90625 143.902344 227.910156 143.808594 227.925781 143.722656 C 228.15625 141.882812 228.296875 140.03125 228.296875 138.179688 C 228.28125 137.363281 228.246094 136.53125 228.171875 135.707031 Z M 222.984375 128.332031 C 222.992188 128.332031 223.007812 128.332031 223.015625 128.332031 C 223.015625 128.332031 223.015625 128.332031 223.019531 128.332031 C 223.015625 128.332031 223 128.339844 222.984375 128.332031 Z M 151.082031 128.078125 C 151.058594 128.070312 151.039062 128.070312 151.023438 128.066406 C 151.039062 128.070312 151.050781 128.070312 151.066406 128.078125 C 151.066406 128.078125 151.066406 128.078125 151.074219 128.078125 C 151.074219 128.078125 151.074219 128.078125 151.082031 128.078125 Z M 151.820312 128.28125 C 151.628906 128.1875 151.824219 128.304688 151.925781 128.332031 C 151.890625 128.3125 151.855469 128.296875 151.820312 128.28125 Z M 150.660156 128.070312 C 150.632812 128.078125 150.597656 128.085938 150.566406 128.09375 C 150.683594 128.078125 150.847656 128.019531 150.660156 128.070312 Z M 151.082031 128.078125 C 151.101562 128.085938 151.125 128.09375 151.144531 128.09375 C 151.238281 128.101562 151.285156 128.085938 151.082031 128.078125 Z M 171.214844 177.570312 C 169.964844 170.949219 168.460938 164.371094 166.613281 157.886719 C 165.117188 152.648438 163.402344 147.460938 161.3125 142.425781 C 161.296875 142.398438 161.28125 142.363281 161.273438 142.339844 C 161.253906 142.289062 161.230469 142.238281 161.210938 142.1875 C 161.144531 142.042969 161.078125 141.890625 161.023438 141.746094 C 160.914062 141.492188 160.804688 141.246094 160.695312 141 C 160.472656 140.503906 160.246094 139.996094 160.007812 139.503906 C 159.566406 138.554688 159.097656 137.617188 158.613281 136.6875 C 157.789062 135.125 156.890625 133.59375 155.863281 132.144531 C 155.746094 131.988281 155.632812 131.820312 155.515625 131.660156 C 155.464844 131.589844 155.414062 131.523438 155.363281 131.457031 C 155.140625 131.175781 154.914062 130.894531 154.675781 130.625 C 154.265625 130.15625 153.835938 129.707031 153.367188 129.300781 C 153.257812 129.207031 153.144531 129.113281 153.035156 129.019531 C 153.019531 129.003906 153.011719 129 153 128.992188 C 152.984375 128.976562 152.96875 128.96875 152.941406 128.949219 C 152.738281 128.804688 152.527344 128.664062 152.3125 128.535156 C 152.203125 128.476562 152.09375 128.414062 151.984375 128.363281 C 151.96875 128.355469 151.957031 128.347656 151.941406 128.339844 C 151.78125 128.332031 151.523438 128.179688 151.371094 128.144531 C 151.304688 128.128906 151.234375 128.117188 151.160156 128.109375 C 151.132812 128.109375 151.109375 128.101562 151.082031 128.09375 C 150.9375 128.085938 150.710938 128.136719 150.558594 128.117188 C 150.550781 128.117188 150.550781 128.117188 150.546875 128.117188 C 150.453125 128.136719 150.363281 128.167969 150.277344 128.1875 C 150.257812 128.195312 150.234375 128.203125 150.207031 128.210938 C 150.140625 128.246094 150.066406 128.273438 150.003906 128.3125 C 149.910156 128.363281 149.816406 128.425781 149.726562 128.484375 C 149.714844 128.492188 149.699219 128.5 149.691406 128.511719 C 149.53125 128.664062 149.367188 128.804688 149.214844 128.960938 C 149.121094 129.0625 149.027344 129.171875 148.9375 129.28125 C 148.933594 129.292969 148.925781 129.292969 148.917969 129.300781 C 148.910156 129.316406 148.902344 129.324219 148.886719 129.34375 C 148.722656 129.585938 148.5625 129.816406 148.417969 130.0625 C 148.230469 130.386719 148.054688 130.71875 147.898438 131.066406 C 147.859375 131.148438 147.722656 131.496094 147.875 131.109375 C 147.839844 131.199219 147.804688 131.285156 147.773438 131.371094 C 147.710938 131.550781 147.644531 131.734375 147.578125 131.914062 C 147.324219 132.679688 147.128906 133.460938 146.992188 134.257812 C 146.957031 134.46875 146.925781 134.679688 146.890625 134.886719 C 146.890625 134.894531 146.890625 134.902344 146.890625 134.910156 C 146.890625 134.925781 146.890625 134.925781 146.890625 134.9375 C 146.878906 135.046875 146.863281 135.15625 146.855469 135.265625 C 146.804688 135.710938 146.769531 136.160156 146.746094 136.609375 C 146.695312 137.566406 146.6875 138.519531 146.71875 139.476562 C 146.746094 140.386719 146.8125 141.304688 146.898438 142.21875 C 146.949219 142.722656 147 143.230469 147.066406 143.738281 C 147.078125 143.824219 147.085938 143.917969 147.101562 144.003906 C 147.109375 144.039062 147.109375 144.0625 147.109375 144.089844 C 147.109375 144.113281 147.117188 144.132812 147.125 144.171875 C 147.152344 144.394531 147.1875 144.625 147.222656 144.851562 C 147.527344 146.890625 147.925781 148.910156 148.390625 150.921875 C 149.375 155.203125 150.632812 159.421875 152.019531 163.582031 C 153.390625 167.65625 154.894531 171.679688 156.492188 175.664062 C 157.664062 178.589844 158.714844 181.070312 159.953125 183.878906 C 159.953125 183.878906 159.953125 183.878906 159.953125 183.886719 C 160 183.855469 160.050781 183.820312 160.101562 183.789062 C 160.21875 183.71875 160.34375 183.652344 160.457031 183.589844 C 160.914062 183.328125 161.375 183.066406 161.839844 182.820312 C 161.90625 182.785156 161.976562 182.75 162.042969 182.710938 C 165.050781 181.121094 168.222656 179.847656 171.476562 178.863281 C 171.476562 178.863281 171.476562 178.855469 171.476562 178.855469 C 171.367188 178.421875 171.296875 177.996094 171.214844 177.570312 Z M 151.964844 128.332031 C 151.957031 128.332031 151.941406 128.324219 151.925781 128.324219 C 151.941406 128.332031 151.957031 128.339844 151.964844 128.332031 Z M 151.964844 128.332031 "/><path style=" stroke:none;fill-rule:nonzero;fill:#ffffff;fill-opacity:1;" d="M 177.988281 210.378906 L 171.085938 217.28125 L 177.988281 224.183594 L 173.164062 229.011719 L 166.261719 222.109375 L 159.359375 229.011719 L 154.53125 224.183594 L 161.433594 217.28125 L 154.53125 210.378906 L 159.359375 205.554688 L 166.261719 212.457031 L 173.164062 205.554688 Z M 220.410156 210.378906 L 215.582031 205.554688 L 208.679688 212.457031 L 201.777344 205.554688 L 196.953125 210.378906 L 203.855469 217.28125 L 196.953125 224.183594 L 201.777344 229.011719 L 208.679688 222.109375 L 215.582031 229.011719 L 220.410156 224.183594 L 213.507812 217.28125 Z M 220.410156 210.378906 "/><g clip-rule="nonzero" clip-path="url(#cc81ee18d7)"><path style=" stroke:none;fill-rule:nonzero;fill:#8c52ff;fill-opacity:1;" d="M 226.941406 193.914062 C 232.644531 200.765625 236.042969 209.308594 236.066406 218.265625 C 236.058594 220.453125 235.855469 222.636719 235.472656 224.792969 C 233.925781 233.460938 229.089844 241.324219 222.566406 247.15625 C 215.503906 253.464844 206.574219 257.554688 197.261719 259.167969 C 187.367188 260.882812 176.96875 260.015625 167.589844 256.367188 C 159.003906 253.023438 151.304688 247.46875 145.9375 239.929688 C 140.8125 232.75 138.214844 223.851562 139.027344 215.054688 C 139.84375 206.207031 143.902344 198 150.046875 191.632812 C 151.074219 190.5625 152.167969 189.558594 153.292969 188.59375 C 153.171875 188.335938 153.046875 188.074219 152.933594 187.804688 C 151.183594 183.949219 149.53125 180.050781 147.984375 176.113281 C 146.007812 171.085938 144.207031 165.984375 142.667969 160.804688 C 141.058594 155.414062 139.722656 149.914062 138.953125 144.335938 C 138.253906 139.222656 137.957031 133.996094 138.890625 128.890625 C 139.65625 124.691406 141.449219 120.503906 144.75 117.675781 C 147.5 115.316406 150.929688 113.984375 154.554688 114.730469 C 158.164062 115.46875 161.1875 118.09375 163.46875 120.867188 C 166.824219 124.933594 169.191406 129.714844 171.136719 134.582031 C 173.648438 140.855469 175.398438 147.433594 176.699219 154.0625 C 178.199219 161.652344 179.101562 169.355469 179.566406 177.078125 C 184.796875 176.339844 190.136719 176.339844 195.375 177.078125 C 195.46875 175.492188 195.578125 173.914062 195.714844 172.332031 C 196.386719 164.40625 197.546875 156.507812 199.390625 148.773438 C 200.886719 142.515625 202.835938 136.335938 205.570312 130.496094 C 207.558594 126.25 210.027344 122 213.449219 118.730469 C 215.960938 116.328125 219.214844 114.382812 222.804688 114.507812 C 226.53125 114.628906 229.921875 116.878906 232.171875 119.75 C 235.015625 123.390625 236.167969 127.941406 236.527344 132.472656 C 236.957031 137.746094 236.328125 143.085938 235.363281 148.265625 C 234.328125 153.859375 232.808594 159.355469 231.050781 164.769531 C 229.445312 169.703125 227.628906 174.574219 225.660156 179.378906 C 224.386719 182.472656 223.058594 185.550781 221.660156 188.585938 C 223.554688 190.207031 225.335938 191.980469 226.941406 193.914062 Z M 226.941406 193.914062 "/></g><g clip-rule="nonzero" clip-path="url(#1fb69f706f)"><path style=" stroke:none;fill-rule:nonzero;fill:#8c52ff;fill-opacity:1;" d="M 180.738281 213.796875 C 180.855469 214.875 180.910156 215.953125 180.917969 217.03125 C 180.90625 221.058594 180.058594 225.175781 178.234375 228.691406 C 177.367188 230.363281 176.453125 231.703125 175.238281 232.992188 C 174.949219 233.300781 174.644531 233.597656 174.328125 233.886719 C 174.175781 234.03125 174.015625 234.167969 173.855469 234.300781 C 173.769531 234.371094 173.675781 234.445312 173.589844 234.515625 C 173.554688 234.546875 173.539062 234.5625 173.523438 234.566406 C 173.515625 234.574219 173.511719 234.574219 173.496094 234.589844 C 172.828125 235.089844 172.121094 235.539062 171.375 235.914062 C 171.195312 236 171.019531 236.085938 170.832031 236.175781 C 170.820312 236.179688 170.769531 236.203125 170.71875 236.226562 C 170.652344 236.246094 170.484375 236.320312 170.5 236.3125 C 170.132812 236.457031 169.753906 236.578125 169.378906 236.679688 C 168.996094 236.789062 168.613281 236.867188 168.222656 236.941406 C 168.164062 236.949219 168.113281 236.957031 168.054688 236.96875 C 168.011719 236.976562 167.917969 236.992188 167.882812 236.992188 C 167.636719 237.011719 167.394531 237.035156 167.148438 237.050781 C 166.773438 237.0625 166.390625 237.0625 166.015625 237.050781 C 165.820312 237.042969 165.617188 237.027344 165.421875 237.007812 C 165.371094 237 165.320312 236.992188 165.261719 236.992188 C 165.238281 236.984375 165.03125 236.957031 165.007812 236.957031 C 164.226562 236.824219 163.46875 236.609375 162.730469 236.324219 C 162.742188 236.332031 162.605469 236.273438 162.535156 236.246094 C 162.460938 236.210938 162.324219 236.152344 162.339844 236.160156 C 162.179688 236.085938 162.019531 236.007812 161.859375 235.929688 C 161.464844 235.726562 161.074219 235.5 160.695312 235.261719 C 159.90625 234.757812 159.582031 234.511719 158.910156 233.894531 C 157.511719 232.628906 156.578125 231.429688 155.644531 229.851562 C 153.648438 226.5 152.578125 222.570312 152.367188 218.664062 C 152.253906 216.515625 152.363281 214.300781 152.722656 212.269531 C 153.0625 210.375 153.671875 208.273438 154.386719 206.648438 C 154.777344 205.765625 155.21875 204.902344 155.726562 204.078125 C 156.175781 203.332031 156.710938 202.574219 157.144531 202.039062 C 158.273438 200.65625 159.453125 199.570312 160.8125 198.722656 C 161.136719 198.523438 161.464844 198.332031 161.804688 198.160156 C 161.984375 198.066406 162.15625 197.980469 162.339844 197.898438 C 162.390625 197.878906 162.441406 197.855469 162.496094 197.828125 C 162.519531 197.820312 162.691406 197.746094 162.738281 197.734375 C 163.496094 197.445312 164.277344 197.242188 165.082031 197.097656 C 165.117188 197.089844 165.210938 197.074219 165.253906 197.066406 C 165.3125 197.058594 165.371094 197.054688 165.421875 197.046875 C 165.59375 197.023438 165.777344 197.015625 165.949219 197.003906 C 166.390625 196.972656 166.839844 196.972656 167.289062 197.003906 C 167.460938 197.007812 167.640625 197.023438 167.816406 197.046875 C 167.808594 197.046875 167.976562 197.066406 168.046875 197.074219 C 168.089844 197.082031 168.140625 197.089844 168.15625 197.089844 C 168.570312 197.160156 168.972656 197.25 169.378906 197.355469 C 169.761719 197.464844 170.132812 197.589844 170.5 197.726562 C 170.566406 197.753906 170.628906 197.777344 170.695312 197.804688 C 170.722656 197.820312 170.753906 197.828125 170.769531 197.835938 C 170.992188 197.9375 171.210938 198.035156 171.425781 198.152344 C 172.15625 198.527344 172.851562 198.96875 173.503906 199.46875 C 173.554688 199.511719 173.742188 199.664062 173.792969 199.699219 C 173.972656 199.851562 174.148438 200.003906 174.320312 200.15625 C 174.640625 200.445312 174.933594 200.742188 175.230469 201.054688 C 175.890625 201.757812 176.316406 202.292969 176.808594 202.984375 C 179.023438 206.199219 180.3125 209.984375 180.738281 213.796875 Z M 222.441406 213.796875 C 222.023438 209.984375 220.726562 206.199219 218.511719 203 C 218.027344 202.296875 217.601562 201.761719 216.9375 201.070312 C 216.648438 200.757812 216.34375 200.460938 216.023438 200.171875 C 215.851562 200.011719 215.675781 199.859375 215.496094 199.714844 C 215.453125 199.679688 215.257812 199.527344 215.207031 199.484375 C 214.554688 198.984375 213.855469 198.542969 213.128906 198.167969 C 212.914062 198.058594 212.695312 197.949219 212.472656 197.847656 C 212.457031 197.839844 212.429688 197.828125 212.398438 197.820312 C 212.335938 197.792969 212.269531 197.769531 212.203125 197.742188 C 211.835938 197.59375 211.457031 197.472656 211.082031 197.371094 C 210.675781 197.261719 210.273438 197.175781 209.859375 197.105469 C 209.84375 197.105469 209.792969 197.097656 209.75 197.089844 C 209.679688 197.082031 209.511719 197.058594 209.519531 197.058594 C 209.347656 197.039062 209.164062 197.03125 208.992188 197.015625 C 208.550781 196.988281 208.101562 196.988281 207.652344 197.015625 C 207.480469 197.023438 207.296875 197.039062 207.125 197.058594 C 207.066406 197.066406 207.007812 197.074219 206.957031 197.082031 C 206.914062 197.089844 206.820312 197.105469 206.785156 197.109375 C 205.980469 197.253906 205.199219 197.457031 204.441406 197.746094 C 204.40625 197.761719 204.230469 197.835938 204.203125 197.839844 C 204.152344 197.863281 204.101562 197.886719 204.042969 197.914062 C 203.863281 197.992188 203.679688 198.085938 203.507812 198.175781 C 203.167969 198.347656 202.839844 198.535156 202.515625 198.738281 C 201.15625 199.585938 199.976562 200.671875 198.847656 202.050781 C 198.414062 202.582031 197.886719 203.347656 197.429688 204.09375 C 196.929688 204.917969 196.488281 205.777344 196.089844 206.660156 C 195.375 208.28125 194.765625 210.378906 194.425781 212.285156 C 194.058594 214.316406 193.949219 216.53125 194.074219 218.679688 C 194.289062 222.585938 195.359375 226.515625 197.351562 229.863281 C 198.289062 231.433594 199.222656 232.636719 200.613281 233.910156 C 201.285156 234.523438 201.605469 234.777344 202.402344 235.277344 C 202.777344 235.515625 203.167969 235.738281 203.566406 235.941406 C 203.722656 236.023438 203.882812 236.101562 204.042969 236.175781 C 204.027344 236.167969 204.164062 236.226562 204.238281 236.261719 C 204.308594 236.289062 204.449219 236.339844 204.433594 236.339844 C 205.171875 236.621094 205.929688 236.832031 206.710938 236.96875 C 206.734375 236.96875 206.945312 237.007812 206.964844 237.007812 C 207.015625 237.011719 207.066406 237.019531 207.125 237.019531 C 207.320312 237.042969 207.523438 237.058594 207.71875 237.0625 C 208.09375 237.085938 208.476562 237.085938 208.855469 237.0625 C 209.101562 237.050781 209.339844 237.027344 209.585938 237.007812 C 209.621094 237.007812 209.714844 236.992188 209.757812 236.984375 C 209.816406 236.976562 209.867188 236.96875 209.925781 236.957031 C 210.316406 236.890625 210.699219 236.804688 211.082031 236.695312 C 211.464844 236.585938 211.835938 236.464844 212.203125 236.324219 C 212.191406 236.332031 212.355469 236.261719 212.421875 236.238281 C 212.464844 236.21875 212.523438 236.195312 212.535156 236.1875 C 212.71875 236.109375 212.898438 236.023438 213.078125 235.929688 C 213.824219 235.550781 214.535156 235.101562 215.199219 234.605469 C 215.214844 234.597656 215.222656 234.589844 215.230469 234.582031 C 215.242188 234.574219 215.257812 234.5625 215.292969 234.53125 C 215.378906 234.460938 215.472656 234.386719 215.5625 234.316406 C 215.71875 234.175781 215.878906 234.039062 216.03125 233.902344 C 216.351562 233.613281 216.648438 233.316406 216.941406 233.003906 C 218.160156 231.71875 219.070312 230.371094 219.9375 228.707031 C 221.761719 225.191406 222.609375 221.074219 222.621094 217.042969 C 222.621094 215.953125 222.566406 214.875 222.441406 213.796875 Z M 222.441406 213.796875 "/></g><g clip-rule="nonzero" clip-path="url(#f51ab280c6)"><path style=" stroke:none;fill-rule:nonzero;fill:#ffffff;fill-opacity:1;" d="M 233.003906 214.332031 C 232.992188 214.238281 232.984375 214.144531 232.96875 214.042969 C 232.96875 214.035156 232.949219 213.875 232.941406 213.796875 C 232.875 213.332031 232.804688 212.875 232.722656 212.421875 C 232.347656 210.359375 231.789062 208.332031 231.058594 206.371094 C 230.394531 204.578125 229.511719 202.746094 228.449219 200.925781 C 227.414062 199.160156 226.210938 197.449219 225.03125 196.027344 C 223.664062 194.367188 222.160156 192.8125 220.5625 191.378906 C 220.03125 190.910156 219.527344 190.476562 219.019531 190.0625 C 218.984375 190.042969 218.949219 190.019531 218.910156 189.992188 C 217.738281 189.042969 216.515625 188.167969 215.25 187.34375 C 215.054688 187.21875 214.859375 187.097656 214.671875 186.972656 C 214.289062 186.734375 213.898438 186.496094 213.507812 186.265625 C 213.433594 186.222656 213.355469 186.179688 213.28125 186.136719 C 209.585938 183.992188 205.632812 182.359375 201.503906 181.222656 C 199.796875 180.757812 198.074219 180.375 196.328125 180.078125 C 191.742188 179.304688 186.800781 179.152344 182.039062 179.617188 C 180.925781 179.726562 179.796875 179.875 178.660156 180.066406 C 178.65625 180.066406 178.640625 180.070312 178.632812 180.070312 C 176.890625 180.367188 175.167969 180.753906 173.460938 181.214844 C 169.328125 182.351562 165.378906 183.984375 161.671875 186.136719 C 161.621094 186.164062 161.570312 186.191406 161.519531 186.222656 C 161.109375 186.460938 160.703125 186.714844 160.296875 186.96875 C 160.152344 187.0625 160.007812 187.148438 159.863281 187.242188 C 159.65625 187.378906 159.453125 187.515625 159.242188 187.65625 C 159.105469 187.742188 158.972656 187.835938 158.835938 187.929688 C 157.882812 188.582031 156.957031 189.269531 156.050781 190 C 156.023438 190.019531 155.984375 190.042969 155.949219 190.0625 C 155.886719 190.113281 155.820312 190.164062 155.753906 190.222656 C 155.371094 190.542969 154.996094 190.859375 154.617188 191.183594 C 153.808594 191.902344 153.019531 192.648438 152.265625 193.421875 C 150.777344 194.941406 149.472656 196.496094 148.347656 198.085938 C 147.144531 199.78125 146.074219 201.566406 145.164062 203.433594 C 144.28125 205.234375 143.597656 206.996094 143.011719 209.070312 C 142.730469 210.054688 142.492188 211.054688 142.304688 212.058594 C 142.203125 212.601562 142.109375 213.144531 142.03125 213.695312 C 142.023438 213.722656 142.023438 213.746094 142.023438 213.765625 C 142.023438 213.78125 142.023438 213.789062 142.015625 213.816406 C 142 213.941406 141.984375 214.054688 141.972656 214.179688 C 141.941406 214.417969 141.921875 214.65625 141.890625 214.902344 C 141.6875 217.035156 141.675781 219.191406 141.863281 221.328125 C 141.890625 221.617188 141.921875 221.90625 141.949219 222.195312 C 141.964844 222.339844 141.984375 222.484375 142 222.628906 C 142 222.652344 142.007812 222.664062 142.007812 222.6875 C 142.082031 223.207031 142.167969 223.730469 142.261719 224.242188 C 142.449219 225.277344 142.6875 226.296875 142.96875 227.3125 C 143.246094 228.292969 143.5625 229.265625 143.925781 230.21875 C 144.027344 230.488281 144.128906 230.753906 144.234375 231.015625 C 144.28125 231.125 144.324219 231.230469 144.375 231.347656 C 144.386719 231.382812 144.402344 231.414062 144.410156 231.433594 C 144.417969 231.457031 144.429688 231.492188 144.453125 231.535156 C 144.640625 231.96875 144.835938 232.40625 145.046875 232.832031 C 145.949219 234.726562 147.023438 236.542969 148.230469 238.257812 C 148.894531 239.207031 149.324219 239.761719 150.03125 240.609375 C 150.699219 241.414062 151.398438 242.195312 152.128906 242.945312 C 158.285156 249.3125 166.304688 253.589844 174.933594 255.6875 C 184.226562 257.945312 194.152344 257.648438 203.320312 254.78125 C 211.609375 252.191406 219.222656 247.453125 224.859375 240.726562 C 226.101562 239.234375 227.304688 237.554688 228.382812 235.726562 C 228.902344 234.84375 229.386719 233.945312 229.835938 233.019531 C 230.074219 232.527344 230.300781 232.027344 230.515625 231.527344 C 230.53125 231.484375 230.546875 231.464844 230.554688 231.441406 C 230.558594 231.433594 230.558594 231.429688 230.566406 231.414062 C 230.609375 231.304688 230.660156 231.195312 230.703125 231.082031 C 230.792969 230.863281 230.878906 230.640625 230.964844 230.414062 C 232.511719 226.363281 233.230469 222.464844 233.238281 218.257812 C 233.238281 217.210938 233.195312 216.160156 233.09375 215.121094 C 233.054688 214.859375 233.035156 214.589844 233.003906 214.332031 Z M 183.558594 220.445312 C 182.640625 228.289062 178.351562 237.164062 170.132812 239.4375 C 166.535156 240.429688 162.664062 239.800781 159.496094 237.859375 C 156.09375 235.785156 153.539062 232.460938 151.941406 228.851562 C 148.300781 220.640625 148.59375 210.324219 153.316406 202.589844 C 155.347656 199.261719 158.25 196.460938 161.917969 195.027344 C 165.421875 193.660156 169.34375 193.972656 172.683594 195.628906 C 176.164062 197.351562 178.871094 200.46875 180.644531 203.867188 C 182.757812 207.914062 183.742188 212.484375 183.753906 217.035156 C 183.753906 218.171875 183.691406 219.308594 183.558594 220.445312 Z M 225.269531 220.445312 C 224.351562 228.289062 220.0625 237.164062 211.84375 239.4375 C 208.246094 240.429688 204.375 239.800781 201.207031 237.859375 C 197.804688 235.785156 195.253906 232.460938 193.652344 228.851562 C 190.011719 220.640625 190.304688 210.324219 195.027344 202.589844 C 197.0625 199.261719 199.960938 196.460938 203.628906 195.027344 C 207.132812 193.660156 211.054688 193.972656 214.398438 195.628906 C 217.875 197.351562 220.582031 200.46875 222.355469 203.867188 C 224.46875 207.914062 225.453125 212.484375 225.464844 217.035156 C 225.460938 218.171875 225.402344 219.308594 225.269531 220.445312 Z M 142.007812 222.703125 C 142.015625 222.761719 142.03125 222.867188 142.007812 222.703125 Z M 223.535156 117.398438 C 223.46875 117.394531 223.367188 117.378906 223.367188 117.378906 C 223.382812 117.363281 223.460938 117.386719 223.535156 117.398438 Z M 233.792969 137.023438 C 233.765625 138.289062 233.6875 139.554688 233.570312 140.820312 C 233.511719 141.457031 233.441406 142.101562 233.367188 142.738281 C 233.34375 142.890625 233.332031 143.042969 233.308594 143.1875 C 233.300781 143.222656 233.273438 143.453125 233.265625 143.527344 C 233.222656 143.851562 233.179688 144.171875 233.128906 144.496094 C 232.316406 149.945312 230.980469 155.304688 229.386719 160.582031 C 227.859375 165.636719 226.097656 170.617188 224.164062 175.527344 C 223.738281 176.613281 223.304688 177.699219 222.855469 178.777344 C 222.652344 179.277344 222.441406 179.773438 222.230469 180.273438 C 222.1875 180.367188 222.152344 180.46875 222.109375 180.5625 C 222.09375 180.605469 222.058594 180.6875 222.03125 180.753906 C 221.921875 181.003906 221.820312 181.25 221.710938 181.496094 C 221.007812 183.140625 220.285156 184.773438 219.546875 186.402344 C 219.488281 186.527344 219.441406 186.640625 219.382812 186.765625 C 219.375 186.773438 219.375 186.777344 219.367188 186.785156 C 218.738281 186.308594 218.09375 185.84375 217.441406 185.398438 C 220.515625 178.453125 223.347656 171.390625 225.753906 164.183594 C 227.167969 159.949219 228.441406 155.660156 229.425781 151.304688 C 230.320312 147.347656 231.007812 143.289062 231.117188 139.222656 C 231.210938 135.640625 230.855469 131.777344 229.019531 128.621094 C 227.753906 126.488281 225.753906 124.875 223.160156 125.324219 C 220.589844 125.765625 218.613281 128.078125 217.125 130.039062 C 214.730469 133.210938 212.964844 136.855469 211.402344 140.496094 C 209.171875 145.675781 207.363281 151.023438 205.800781 156.433594 C 203.875 163.105469 202.3125 169.882812 201.019531 176.699219 C 200.933594 177.164062 200.84375 177.625 200.765625 178.089844 C 200.765625 178.089844 200.765625 178.097656 200.765625 178.097656 C 199.910156 177.894531 199.058594 177.707031 198.195312 177.539062 C 198.195312 177.53125 198.195312 177.53125 198.195312 177.523438 C 198.636719 169.929688 199.5 162.351562 200.96875 154.886719 C 202.25 148.375 203.957031 141.90625 206.394531 135.71875 C 206.515625 135.410156 206.640625 135.097656 206.761719 134.792969 C 206.835938 134.621094 206.90625 134.445312 206.980469 134.273438 C 206.980469 134.273438 207.003906 134.222656 207.015625 134.1875 C 207.046875 134.128906 207.101562 133.984375 207.109375 133.96875 C 207.378906 133.339844 207.652344 132.71875 207.941406 132.101562 C 208.492188 130.914062 209.078125 129.742188 209.707031 128.601562 C 210.285156 127.542969 210.902344 126.515625 211.558594 125.511719 C 211.871094 125.035156 212.195312 124.5625 212.53125 124.105469 C 212.675781 123.90625 212.828125 123.710938 212.972656 123.507812 C 212.992188 123.476562 213 123.464844 213.015625 123.449219 C 213.023438 123.441406 213.027344 123.433594 213.035156 123.417969 C 213.128906 123.296875 213.230469 123.175781 213.324219 123.058594 C 213.949219 122.292969 214.613281 121.554688 215.324219 120.859375 C 215.648438 120.546875 215.980469 120.238281 216.320312 119.945312 C 216.480469 119.808594 216.652344 119.6875 216.804688 119.550781 C 216.8125 119.542969 216.828125 119.535156 216.835938 119.527344 C 216.9375 119.453125 217.039062 119.375 217.136719 119.304688 C 217.796875 118.832031 218.492188 118.414062 219.222656 118.074219 C 219.292969 118.035156 219.367188 118.007812 219.441406 117.972656 C 219.628906 117.90625 219.800781 117.835938 219.988281 117.769531 C 220.34375 117.652344 220.707031 117.550781 221.066406 117.472656 C 221.226562 117.4375 221.386719 117.414062 221.542969 117.386719 C 221.632812 117.378906 221.71875 117.363281 221.804688 117.355469 C 222.167969 117.328125 222.527344 117.320312 222.890625 117.335938 C 223.058594 117.34375 223.214844 117.355469 223.382812 117.371094 C 223.425781 117.378906 223.476562 117.386719 223.519531 117.386719 C 223.535156 117.386719 223.535156 117.386719 223.542969 117.386719 C 223.585938 117.394531 223.621094 117.40625 223.628906 117.40625 C 223.984375 117.472656 224.332031 117.558594 224.679688 117.660156 C 224.851562 117.71875 225.03125 117.777344 225.199219 117.839844 C 225.277344 117.871094 225.359375 117.90625 225.4375 117.933594 C 225.453125 117.941406 225.464844 117.949219 225.488281 117.957031 C 225.855469 118.132812 226.21875 118.3125 226.566406 118.523438 C 226.921875 118.730469 227.269531 118.964844 227.601562 119.207031 C 227.621094 119.222656 227.671875 119.265625 227.722656 119.304688 C 227.773438 119.347656 227.855469 119.402344 227.875 119.417969 C 228.070312 119.578125 228.265625 119.746094 228.460938 119.917969 C 228.824219 120.25 229.171875 120.597656 229.503906 120.96875 C 229.664062 121.148438 229.816406 121.328125 229.964844 121.507812 C 229.988281 121.539062 230.011719 121.558594 230.03125 121.589844 C 230.097656 121.683594 230.167969 121.769531 230.234375 121.863281 C 230.804688 122.660156 231.304688 123.519531 231.726562 124.410156 C 231.78125 124.527344 231.832031 124.648438 231.890625 124.773438 C 231.90625 124.800781 231.949219 124.902344 231.976562 124.976562 C 232.007812 125.039062 232.042969 125.140625 232.058594 125.171875 C 232.117188 125.308594 232.167969 125.453125 232.21875 125.589844 C 232.398438 126.066406 232.558594 126.550781 232.695312 127.042969 C 233 128.085938 233.230469 129.144531 233.402344 130.214844 C 233.425781 130.34375 233.445312 130.46875 233.460938 130.597656 C 233.46875 130.664062 233.484375 130.734375 233.492188 130.800781 C 233.527344 131.066406 233.554688 131.335938 233.585938 131.601562 C 233.648438 132.1875 233.691406 132.78125 233.730469 133.367188 C 233.808594 134.597656 233.824219 135.804688 233.792969 137.023438 Z M 141.738281 143.902344 C 141.726562 143.816406 141.71875 143.730469 141.703125 143.640625 C 141.703125 143.621094 141.6875 143.554688 141.683594 143.503906 C 141.675781 143.441406 141.644531 143.238281 141.640625 143.179688 C 141.617188 143.003906 141.59375 142.839844 141.574219 142.664062 C 141.492188 142.007812 141.429688 141.347656 141.363281 140.691406 C 141.140625 138.230469 141.058594 135.75 141.203125 133.273438 C 141.242188 132.703125 141.285156 132.132812 141.34375 131.566406 C 141.371094 131.3125 141.398438 131.066406 141.429688 130.8125 C 141.4375 130.761719 141.449219 130.667969 141.457031 130.613281 C 141.480469 130.445312 141.507812 130.285156 141.539062 130.121094 C 141.710938 129.070312 141.941406 128.027344 142.238281 127.007812 C 142.390625 126.503906 142.558594 126.003906 142.738281 125.511719 C 142.78125 125.402344 142.824219 125.292969 142.867188 125.183594 C 142.882812 125.148438 142.941406 125.019531 142.960938 124.953125 C 143.050781 124.75 143.144531 124.542969 143.238281 124.347656 C 143.65625 123.476562 144.148438 122.636719 144.714844 121.851562 C 144.765625 121.777344 144.824219 121.707031 144.871094 121.632812 C 144.894531 121.605469 144.9375 121.546875 144.980469 121.496094 C 145.140625 121.300781 145.308594 121.105469 145.472656 120.917969 C 145.792969 120.5625 146.132812 120.222656 146.488281 119.902344 C 146.667969 119.746094 146.847656 119.585938 147.035156 119.433594 C 147.058594 119.417969 147.125 119.367188 147.167969 119.324219 C 147.230469 119.273438 147.339844 119.195312 147.367188 119.171875 C 147.703125 118.925781 148.050781 118.703125 148.410156 118.492188 C 148.757812 118.289062 149.121094 118.117188 149.488281 117.933594 C 149.5625 117.90625 149.632812 117.878906 149.707031 117.847656 C 149.886719 117.777344 150.074219 117.71875 150.261719 117.660156 C 150.617188 117.550781 150.980469 117.472656 151.347656 117.398438 C 151.355469 117.398438 151.371094 117.394531 151.382812 117.394531 C 151.433594 117.386719 151.5 117.378906 151.53125 117.371094 C 151.71875 117.355469 151.90625 117.335938 152.085938 117.335938 C 152.433594 117.320312 152.789062 117.328125 153.136719 117.363281 C 153.214844 117.371094 153.289062 117.378906 153.367188 117.386719 C 153.546875 117.421875 153.730469 117.449219 153.910156 117.488281 C 154.265625 117.566406 154.613281 117.660156 154.953125 117.785156 C 155.125 117.839844 155.292969 117.914062 155.464844 117.972656 C 155.558594 118.015625 155.660156 118.058594 155.753906 118.101562 C 156.484375 118.449219 157.179688 118.875 157.839844 119.347656 C 157.917969 119.402344 157.996094 119.460938 158.078125 119.519531 C 158.085938 119.527344 158.097656 119.535156 158.105469 119.542969 C 158.273438 119.695312 158.460938 119.824219 158.632812 119.96875 C 158.988281 120.273438 159.335938 120.589844 159.667969 120.917969 C 160.363281 121.597656 161.015625 122.328125 161.628906 123.085938 C 161.714844 123.195312 161.804688 123.304688 161.890625 123.414062 C 161.90625 123.425781 161.910156 123.433594 161.917969 123.441406 C 161.925781 123.457031 161.941406 123.46875 161.957031 123.492188 C 162.128906 123.714844 162.296875 123.949219 162.460938 124.179688 C 162.792969 124.644531 163.121094 125.113281 163.429688 125.589844 C 164.796875 127.675781 165.972656 129.886719 167.011719 132.144531 C 167.308594 132.789062 167.589844 133.433594 167.875 134.078125 C 167.875 134.078125 167.894531 134.121094 167.910156 134.15625 C 167.933594 134.207031 167.96875 134.300781 167.976562 134.316406 C 168.039062 134.46875 168.097656 134.621094 168.164062 134.773438 C 168.308594 135.125 168.453125 135.480469 168.589844 135.835938 C 169.148438 137.253906 169.660156 138.679688 170.136719 140.125 C 171.195312 143.289062 172.085938 146.507812 172.851562 149.75 C 174.617188 157.195312 175.730469 164.777344 176.375 172.394531 C 176.519531 174.101562 176.636719 175.804688 176.730469 177.511719 C 176.730469 177.511719 176.730469 177.511719 176.730469 177.519531 C 175.867188 177.683594 175.015625 177.871094 174.160156 178.074219 C 174.160156 178.074219 174.160156 178.066406 174.160156 178.066406 C 172.960938 171.554688 171.527344 165.082031 169.769531 158.699219 C 168.25 153.164062 166.492188 147.679688 164.320312 142.367188 C 162.714844 138.433594 160.929688 134.496094 158.496094 130.988281 C 156.964844 128.773438 155.046875 126.355469 152.390625 125.460938 C 149.972656 124.644531 147.796875 125.917969 146.390625 127.855469 C 146.21875 128.09375 146.058594 128.347656 145.90625 128.601562 C 144.285156 131.378906 143.839844 134.707031 143.792969 137.867188 C 143.746094 141.863281 144.359375 145.871094 145.167969 149.777344 C 146.972656 158.417969 149.902344 166.816406 153.136719 175.015625 C 154.511719 178.496094 155.964844 181.953125 157.476562 185.375 C 156.824219 185.816406 156.1875 186.28125 155.558594 186.757812 C 155.558594 186.75 155.550781 186.742188 155.550781 186.734375 C 155.140625 185.839844 154.726562 184.941406 154.328125 184.035156 C 153.9375 183.152344 153.554688 182.265625 153.171875 181.375 C 153.070312 181.144531 152.96875 180.902344 152.875 180.671875 C 152.859375 180.644531 152.851562 180.613281 152.839844 180.585938 C 152.839844 180.585938 152.839844 180.585938 152.839844 180.578125 C 152.78125 180.433594 152.714844 180.289062 152.65625 180.144531 C 152.449219 179.644531 152.238281 179.136719 152.035156 178.640625 C 150.125 173.972656 148.347656 169.21875 146.769531 164.394531 C 145.046875 159.140625 143.550781 153.800781 142.492188 148.367188 C 142.230469 147.035156 142 145.695312 141.804688 144.359375 C 141.785156 144.207031 141.761719 144.054688 141.738281 143.902344 Z M 141.738281 143.902344 "/></g><g clip-rule="nonzero" clip-path="url(#0e6b52a4b3)"><path style=" stroke:none;fill-rule:nonzero;fill:#8c52ff;fill-opacity:1;" d="M 223.050781 128.324219 C 223.042969 128.324219 223.035156 128.324219 223.027344 128.332031 C 223.058594 128.316406 223.085938 128.304688 223.109375 128.296875 C 223.296875 128.1875 223.160156 128.296875 223.050781 128.324219 Z M 222.023438 128.941406 C 221.964844 128.984375 221.9375 129.003906 221.921875 129.019531 C 221.949219 129 222.007812 128.953125 222.035156 128.933594 C 222.035156 128.933594 222.03125 128.933594 222.023438 128.941406 Z M 222.058594 128.902344 C 222.058594 128.910156 222.050781 128.917969 222.042969 128.925781 C 222.050781 128.925781 222.050781 128.917969 222.058594 128.917969 C 222.050781 128.917969 222.058594 128.910156 222.058594 128.902344 Z M 228.171875 135.707031 C 228.152344 135.488281 228.128906 135.265625 228.105469 135.046875 C 228.101562 134.996094 228.070312 134.765625 228.078125 134.835938 C 228.078125 134.816406 228.070312 134.800781 228.070312 134.777344 C 228.011719 134.417969 227.957031 134.054688 227.875 133.695312 C 227.730469 133 227.542969 132.3125 227.304688 131.640625 C 227.261719 131.507812 227.210938 131.386719 227.160156 131.253906 C 227.179688 131.304688 227.058594 131.015625 227.023438 130.9375 C 226.882812 130.632812 226.726562 130.34375 226.558594 130.054688 C 226.414062 129.808594 226.253906 129.570312 226.089844 129.339844 C 226.074219 129.316406 226.058594 129.300781 226.050781 129.289062 C 226.039062 129.273438 226.023438 129.257812 226.015625 129.25 C 225.929688 129.148438 225.851562 129.054688 225.753906 128.953125 C 225.605469 128.796875 225.4375 128.65625 225.277344 128.507812 C 225.257812 128.492188 225.234375 128.476562 225.21875 128.460938 C 225.132812 128.40625 225.054688 128.355469 224.96875 128.304688 C 224.902344 128.265625 224.828125 128.230469 224.757812 128.195312 C 224.734375 128.1875 224.714844 128.179688 224.691406 128.171875 C 224.597656 128.144531 224.503906 128.117188 224.410156 128.09375 C 224.257812 128.117188 224.027344 128.066406 223.882812 128.070312 C 223.867188 128.070312 223.859375 128.070312 223.847656 128.070312 C 223.757812 128.09375 223.679688 128.101562 223.59375 128.121094 C 223.449219 128.160156 223.210938 128.296875 223.042969 128.316406 C 223.035156 128.316406 223.019531 128.324219 223.011719 128.324219 C 222.992188 128.332031 222.96875 128.347656 222.949219 128.355469 C 222.847656 128.40625 222.746094 128.460938 222.652344 128.511719 C 222.441406 128.636719 222.246094 128.765625 222.050781 128.902344 C 222.03125 128.960938 221.863281 129.054688 221.921875 129 C 221.914062 129.003906 221.90625 129.011719 221.898438 129.011719 C 221.796875 129.097656 221.691406 129.1875 221.589844 129.273438 C 221.363281 129.46875 221.148438 129.679688 220.9375 129.886719 C 220.453125 130.378906 220.019531 130.902344 219.585938 131.4375 C 219.585938 131.4375 219.585938 131.4375 219.578125 131.445312 C 219.570312 131.449219 219.570312 131.449219 219.5625 131.464844 C 219.511719 131.539062 219.453125 131.609375 219.402344 131.683594 C 219.292969 131.828125 219.1875 131.980469 219.078125 132.132812 C 218.847656 132.457031 218.621094 132.789062 218.40625 133.121094 C 217.371094 134.707031 216.457031 136.371094 215.621094 138.0625 C 215.140625 139.027344 214.6875 140.003906 214.25 140.988281 C 214.128906 141.253906 214.011719 141.53125 213.898438 141.796875 C 213.832031 141.941406 213.765625 142.09375 213.710938 142.246094 C 213.6875 142.296875 213.679688 142.316406 213.671875 142.332031 C 213.664062 142.347656 213.660156 142.367188 213.636719 142.417969 C 213.40625 142.96875 213.179688 143.527344 212.957031 144.082031 C 210.878906 149.308594 209.1875 154.683594 207.71875 160.101562 C 206.039062 166.28125 204.65625 172.546875 203.5 178.84375 C 203.5 178.84375 203.5 178.847656 203.5 178.847656 C 205.539062 179.472656 207.542969 180.195312 209.5 181.046875 C 209.542969 181.070312 209.585938 181.085938 209.628906 181.105469 C 210.136719 181.332031 210.640625 181.5625 211.140625 181.800781 C 211.257812 181.859375 211.363281 181.910156 211.480469 181.96875 C 211.90625 182.175781 212.335938 182.394531 212.753906 182.613281 C 212.90625 182.691406 213.058594 182.769531 213.21875 182.851562 C 213.601562 183.058594 213.984375 183.269531 214.367188 183.488281 C 214.535156 183.582031 214.699219 183.675781 214.867188 183.777344 C 214.917969 183.804688 214.96875 183.839844 215.027344 183.871094 C 215.027344 183.871094 215.027344 183.871094 215.027344 183.863281 C 215.582031 182.597656 216.140625 181.332031 216.675781 180.050781 C 216.683594 180.035156 216.746094 179.882812 216.769531 179.832031 C 216.804688 179.746094 216.84375 179.652344 216.886719 179.566406 C 216.988281 179.328125 217.089844 179.089844 217.1875 178.847656 C 217.390625 178.355469 217.59375 177.863281 217.796875 177.375 C 218.214844 176.347656 218.636719 175.3125 219.042969 174.277344 C 222.226562 166.214844 225.105469 157.953125 226.921875 149.464844 C 227.136719 148.433594 227.339844 147.398438 227.519531 146.355469 C 227.609375 145.847656 227.6875 145.34375 227.765625 144.835938 C 227.804688 144.613281 227.832031 144.378906 227.867188 144.15625 C 227.875 144.121094 227.875 144.097656 227.882812 144.078125 C 227.882812 144.054688 227.890625 144.027344 227.890625 143.988281 C 227.90625 143.902344 227.910156 143.808594 227.925781 143.722656 C 228.15625 141.882812 228.296875 140.03125 228.296875 138.179688 C 228.28125 137.363281 228.246094 136.53125 228.171875 135.707031 Z M 222.984375 128.332031 C 222.992188 128.332031 223.007812 128.332031 223.015625 128.332031 C 223.015625 128.332031 223.015625 128.332031 223.019531 128.332031 C 223.015625 128.332031 223 128.339844 222.984375 128.332031 Z M 151.082031 128.078125 C 151.058594 128.070312 151.039062 128.070312 151.023438 128.066406 C 151.039062 128.070312 151.050781 128.070312 151.066406 128.078125 C 151.066406 128.078125 151.066406 128.078125 151.074219 128.078125 C 151.074219 128.078125 151.074219 128.078125 151.082031 128.078125 Z M 151.820312 128.28125 C 151.628906 128.1875 151.824219 128.304688 151.925781 128.332031 C 151.890625 128.3125 151.855469 128.296875 151.820312 128.28125 Z M 150.660156 128.070312 C 150.632812 128.078125 150.597656 128.085938 150.566406 128.09375 C 150.683594 128.078125 150.847656 128.019531 150.660156 128.070312 Z M 151.082031 128.078125 C 151.101562 128.085938 151.125 128.09375 151.144531 128.09375 C 151.238281 128.101562 151.285156 128.085938 151.082031 128.078125 Z M 171.214844 177.570312 C 169.964844 170.949219 168.460938 164.371094 166.613281 157.886719 C 165.117188 152.648438 163.402344 147.460938 161.3125 142.425781 C 161.296875 142.398438 161.28125 142.363281 161.273438 142.339844 C 161.253906 142.289062 161.230469 142.238281 161.210938 142.1875 C 161.144531 142.042969 161.078125 141.890625 161.023438 141.746094 C 160.914062 141.492188 160.804688 141.246094 160.695312 141 C 160.472656 140.503906 160.246094 139.996094 160.007812 139.503906 C 159.566406 138.554688 159.097656 137.617188 158.613281 136.6875 C 157.789062 135.125 156.890625 133.59375 155.863281 132.144531 C 155.746094 131.988281 155.632812 131.820312 155.515625 131.660156 C 155.464844 131.589844 155.414062 131.523438 155.363281 131.457031 C 155.140625 131.175781 154.914062 130.894531 154.675781 130.625 C 154.265625 130.15625 153.835938 129.707031 153.367188 129.300781 C 153.257812 129.207031 153.144531 129.113281 153.035156 129.019531 C 153.019531 129.003906 153.011719 129 153 128.992188 C 152.984375 128.976562 152.96875 128.96875 152.941406 128.949219 C 152.738281 128.804688 152.527344 128.664062 152.3125 128.535156 C 152.203125 128.476562 152.09375 128.414062 151.984375 128.363281 C 151.96875 128.355469 151.957031 128.347656 151.941406 128.339844 C 151.78125 128.332031 151.523438 128.179688 151.371094 128.144531 C 151.304688 128.128906 151.234375 128.117188 151.160156 128.109375 C 151.132812 128.109375 151.109375 128.101562 151.082031 128.09375 C 150.9375 128.085938 150.710938 128.136719 150.558594 128.117188 C 150.550781 128.117188 150.550781 128.117188 150.546875 128.117188 C 150.453125 128.136719 150.363281 128.167969 150.277344 128.1875 C 150.257812 128.195312 150.234375 128.203125 150.207031 128.210938 C 150.140625 128.246094 150.066406 128.273438 150.003906 128.3125 C 149.910156 128.363281 149.816406 128.425781 149.726562 128.484375 C 149.714844 128.492188 149.699219 128.5 149.691406 128.511719 C 149.53125 128.664062 149.367188 128.804688 149.214844 128.960938 C 149.121094 129.0625 149.027344 129.171875 148.9375 129.28125 C 148.933594 129.292969 148.925781 129.292969 148.917969 129.300781 C 148.910156 129.316406 148.902344 129.324219 148.886719 129.34375 C 148.722656 129.585938 148.5625 129.816406 148.417969 130.0625 C 148.230469 130.386719 148.054688 130.71875 147.898438 131.066406 C 147.859375 131.148438 147.722656 131.496094 147.875 131.109375 C 147.839844 131.199219 147.804688 131.285156 147.773438 131.371094 C 147.710938 131.550781 147.644531 131.734375 147.578125 131.914062 C 147.324219 132.679688 147.128906 133.460938 146.992188 134.257812 C 146.957031 134.46875 146.925781 134.679688 146.890625 134.886719 C 146.890625 134.894531 146.890625 134.902344 146.890625 134.910156 C 146.890625 134.925781 146.890625 134.925781 146.890625 134.9375 C 146.878906 135.046875 146.863281 135.15625 146.855469 135.265625 C 146.804688 135.710938 146.769531 136.160156 146.746094 136.609375 C 146.695312 137.566406 146.6875 138.519531 146.71875 139.476562 C 146.746094 140.386719 146.8125 141.304688 146.898438 142.21875 C 146.949219 142.722656 147 143.230469 147.066406 143.738281 C 147.078125 143.824219 147.085938 143.917969 147.101562 144.003906 C 147.109375 144.039062 147.109375 144.0625 147.109375 144.089844 C 147.109375 144.113281 147.117188 144.132812 147.125 144.171875 C 147.152344 144.394531 147.1875 144.625 147.222656 144.851562 C 147.527344 146.890625 147.925781 148.910156 148.390625 150.921875 C 149.375 155.203125 150.632812 159.421875 152.019531 163.582031 C 153.390625 167.65625 154.894531 171.679688 156.492188 175.664062 C 157.664062 178.589844 158.714844 181.070312 159.953125 183.878906 C 159.953125 183.878906 159.953125 183.878906 159.953125 183.886719 C 160 183.855469 160.050781 183.820312 160.101562 183.789062 C 160.21875 183.71875 160.34375 183.652344 160.457031 183.589844 C 160.914062 183.328125 161.375 183.066406 161.839844 182.820312 C 161.90625 182.785156 161.976562 182.75 162.042969 182.710938 C 165.050781 181.121094 168.222656 179.847656 171.476562 178.863281 C 171.476562 178.863281 171.476562 178.855469 171.476562 178.855469 C 171.367188 178.421875 171.296875 177.996094 171.214844 177.570312 Z M 151.964844 128.332031 C 151.957031 128.332031 151.941406 128.324219 151.925781 128.324219 C 151.941406 128.332031 151.957031 128.339844 151.964844 128.332031 Z M 151.964844 128.332031 "/></g><g clip-rule="nonzero" clip-path="url(#f75b87ee24)"><path style=" stroke:none;fill-rule:nonzero;fill:#ffffff;fill-opacity:1;" d="M 177.988281 210.378906 L 171.085938 217.28125 L 177.988281 224.183594 L 173.164062 229.011719 L 166.261719 222.109375 L 159.359375 229.011719 L 154.53125 224.183594 L 161.433594 217.28125 L 154.53125 210.378906 L 159.359375 205.554688 L 166.261719 212.457031 L 173.164062 205.554688 Z M 220.410156 210.378906 L 215.582031 205.554688 L 208.679688 212.457031 L 201.777344 205.554688 L 196.953125 210.378906 L 203.855469 217.28125 L 196.953125 224.183594 L 201.777344 229.011719 L 208.679688 222.109375 L 215.582031 229.011719 L 220.410156 224.183594 L 213.507812 217.28125 Z M 220.410156 210.378906 "/></g></g></svg>